<mxfile host="www.draw.io" modified="2020-02-17T08:16:44.636Z" agent="Mozilla/5.0 (Windows NT 10.0; Win64; x64; rv:68.0) Gecko/20100101 Firefox/68.0" etag="tK_BmG7r68UirD8c0KA9" version="12.7.0" type="github" pages="2">
  <diagram id="7alaflQmI3zRseVe3DKQ" name="Oef 1 tot 5">
    <mxGraphModel dx="700" dy="789" grid="1" gridSize="10" guides="1" tooltips="1" connect="1" arrows="1" fold="1" page="1" pageScale="1" pageWidth="827" pageHeight="1169" math="0" shadow="0">
      <root>
        <mxCell id="0"/>
        <mxCell id="1" parent="0"/>
        <mxCell id="IQ13Ngc54RjAF5gL2J---1" value="&lt;font style=&quot;font-size: 20px&quot;&gt;1.Mr. Silvio&lt;/font&gt;" style="text;html=1;align=center;verticalAlign=middle;resizable=0;points=[];autosize=1;" parent="1" vertex="1">
          <mxGeometry x="5" y="15" width="110" height="20" as="geometry"/>
        </mxCell>
        <mxCell id="IQ13Ngc54RjAF5gL2J---46" value="&lt;font style=&quot;font-size: 20px&quot;&gt;&lt;br&gt;&lt;/font&gt;" style="text;html=1;align=center;verticalAlign=middle;resizable=0;points=[];autosize=1;" parent="1" vertex="1">
          <mxGeometry x="895" y="15" width="20" height="20" as="geometry"/>
        </mxCell>
        <mxCell id="IQ13Ngc54RjAF5gL2J---2" value="Werknemer" style="swimlane;fontStyle=0;childLayout=stackLayout;horizontal=1;startSize=26;fillColor=#e0e0e0;horizontalStack=0;resizeParent=1;resizeParentMax=0;resizeLast=0;collapsible=1;marginBottom=0;swimlaneFillColor=#ffffff;align=center;fontSize=14;" parent="1" vertex="1">
          <mxGeometry x="10" y="50" width="220" height="274" as="geometry">
            <mxRectangle x="20" y="20" width="70" height="26" as="alternateBounds"/>
          </mxGeometry>
        </mxCell>
        <mxCell id="IQ13Ngc54RjAF5gL2J---3" value="Id int" style="shape=partialRectangle;top=0;left=0;right=0;bottom=1;align=left;verticalAlign=middle;fillColor=none;spacingLeft=34;spacingRight=4;overflow=hidden;rotatable=0;points=[[0,0.5],[1,0.5]];portConstraint=eastwest;dropTarget=0;fontStyle=5;fontSize=12;" parent="IQ13Ngc54RjAF5gL2J---2" vertex="1">
          <mxGeometry y="26" width="220" height="30" as="geometry"/>
        </mxCell>
        <mxCell id="IQ13Ngc54RjAF5gL2J---4" value="PK" style="shape=partialRectangle;top=0;left=0;bottom=0;fillColor=none;align=left;verticalAlign=middle;spacingLeft=4;spacingRight=4;overflow=hidden;rotatable=0;points=[];portConstraint=eastwest;part=1;fontSize=12;" parent="IQ13Ngc54RjAF5gL2J---3" vertex="1" connectable="0">
          <mxGeometry width="30" height="30" as="geometry"/>
        </mxCell>
        <mxCell id="IQ13Ngc54RjAF5gL2J---5" value="Voornaam varchar(255)Â " style="shape=partialRectangle;top=0;left=0;right=0;bottom=0;align=left;verticalAlign=top;fillColor=none;spacingLeft=34;spacingRight=4;overflow=hidden;rotatable=0;points=[[0,0.5],[1,0.5]];portConstraint=eastwest;dropTarget=0;fontSize=12;" parent="IQ13Ngc54RjAF5gL2J---2" vertex="1">
          <mxGeometry y="56" width="220" height="26" as="geometry"/>
        </mxCell>
        <mxCell id="IQ13Ngc54RjAF5gL2J---6" value="" style="shape=partialRectangle;top=0;left=0;bottom=0;fillColor=none;align=left;verticalAlign=top;spacingLeft=4;spacingRight=4;overflow=hidden;rotatable=0;points=[];portConstraint=eastwest;part=1;fontSize=12;" parent="IQ13Ngc54RjAF5gL2J---5" vertex="1" connectable="0">
          <mxGeometry width="30" height="26" as="geometry"/>
        </mxCell>
        <mxCell id="IQ13Ngc54RjAF5gL2J---7" value="Achternaam varchar(255)" style="shape=partialRectangle;top=0;left=0;right=0;bottom=0;align=left;verticalAlign=top;fillColor=none;spacingLeft=34;spacingRight=4;overflow=hidden;rotatable=0;points=[[0,0.5],[1,0.5]];portConstraint=eastwest;dropTarget=0;fontSize=12;" parent="IQ13Ngc54RjAF5gL2J---2" vertex="1">
          <mxGeometry y="82" width="220" height="26" as="geometry"/>
        </mxCell>
        <mxCell id="IQ13Ngc54RjAF5gL2J---8" value="" style="shape=partialRectangle;top=0;left=0;bottom=0;fillColor=none;align=left;verticalAlign=top;spacingLeft=4;spacingRight=4;overflow=hidden;rotatable=0;points=[];portConstraint=eastwest;part=1;fontSize=12;" parent="IQ13Ngc54RjAF5gL2J---7" vertex="1" connectable="0">
          <mxGeometry width="30" height="26" as="geometry"/>
        </mxCell>
        <mxCell id="IQ13Ngc54RjAF5gL2J---21" value="Job varchar(255)" style="shape=partialRectangle;top=0;left=0;right=0;bottom=0;align=left;verticalAlign=top;fillColor=none;spacingLeft=34;spacingRight=4;overflow=hidden;rotatable=0;points=[[0,0.5],[1,0.5]];portConstraint=eastwest;dropTarget=0;fontSize=12;" parent="IQ13Ngc54RjAF5gL2J---2" vertex="1">
          <mxGeometry y="108" width="220" height="26" as="geometry"/>
        </mxCell>
        <mxCell id="IQ13Ngc54RjAF5gL2J---22" value="" style="shape=partialRectangle;top=0;left=0;bottom=0;fillColor=none;align=left;verticalAlign=top;spacingLeft=4;spacingRight=4;overflow=hidden;rotatable=0;points=[];portConstraint=eastwest;part=1;fontSize=12;" parent="IQ13Ngc54RjAF5gL2J---21" vertex="1" connectable="0">
          <mxGeometry width="30" height="26" as="geometry"/>
        </mxCell>
        <mxCell id="IQ13Ngc54RjAF5gL2J---9" value="DatumAangenomen date" style="shape=partialRectangle;top=0;left=0;right=0;bottom=0;align=left;verticalAlign=top;fillColor=none;spacingLeft=34;spacingRight=4;overflow=hidden;rotatable=0;points=[[0,0.5],[1,0.5]];portConstraint=eastwest;dropTarget=0;fontSize=12;fontStyle=0" parent="IQ13Ngc54RjAF5gL2J---2" vertex="1">
          <mxGeometry y="134" width="220" height="26" as="geometry"/>
        </mxCell>
        <mxCell id="IQ13Ngc54RjAF5gL2J---10" value="" style="shape=partialRectangle;top=0;left=0;bottom=0;fillColor=none;align=left;verticalAlign=top;spacingLeft=4;spacingRight=4;overflow=hidden;rotatable=0;points=[];portConstraint=eastwest;part=1;fontSize=12;fontStyle=0" parent="IQ13Ngc54RjAF5gL2J---9" vertex="1" connectable="0">
          <mxGeometry width="30" height="26" as="geometry"/>
        </mxCell>
        <mxCell id="IQ13Ngc54RjAF5gL2J---13" value="Salaris numeric(4,2)" style="shape=partialRectangle;top=0;left=0;right=0;bottom=0;align=left;verticalAlign=top;fillColor=none;spacingLeft=34;spacingRight=4;overflow=hidden;rotatable=0;points=[[0,0.5],[1,0.5]];portConstraint=eastwest;dropTarget=0;fontSize=12;fontStyle=0" parent="IQ13Ngc54RjAF5gL2J---2" vertex="1">
          <mxGeometry y="160" width="220" height="26" as="geometry"/>
        </mxCell>
        <mxCell id="IQ13Ngc54RjAF5gL2J---14" value="" style="shape=partialRectangle;top=0;left=0;bottom=0;fillColor=none;align=left;verticalAlign=top;spacingLeft=4;spacingRight=4;overflow=hidden;rotatable=0;points=[];portConstraint=eastwest;part=1;fontSize=12;fontStyle=0" parent="IQ13Ngc54RjAF5gL2J---13" vertex="1" connectable="0">
          <mxGeometry width="30" height="26" as="geometry"/>
        </mxCell>
        <mxCell id="IQ13Ngc54RjAF5gL2J---15" value="Commissie numeric(4,2)" style="shape=partialRectangle;top=0;left=0;right=0;bottom=0;align=left;verticalAlign=top;fillColor=none;spacingLeft=34;spacingRight=4;overflow=hidden;rotatable=0;points=[[0,0.5],[1,0.5]];portConstraint=eastwest;dropTarget=0;fontSize=12;fontStyle=0" parent="IQ13Ngc54RjAF5gL2J---2" vertex="1">
          <mxGeometry y="186" width="220" height="26" as="geometry"/>
        </mxCell>
        <mxCell id="IQ13Ngc54RjAF5gL2J---16" value="" style="shape=partialRectangle;top=0;left=0;bottom=0;fillColor=none;align=left;verticalAlign=top;spacingLeft=4;spacingRight=4;overflow=hidden;rotatable=0;points=[];portConstraint=eastwest;part=1;fontSize=12;fontStyle=0" parent="IQ13Ngc54RjAF5gL2J---15" vertex="1" connectable="0">
          <mxGeometry width="30" height="26" as="geometry"/>
        </mxCell>
        <mxCell id="IQ13Ngc54RjAF5gL2J---17" value="Nummer int UNIQUE" style="shape=partialRectangle;top=0;left=0;right=0;bottom=0;align=left;verticalAlign=top;fillColor=none;spacingLeft=34;spacingRight=4;overflow=hidden;rotatable=0;points=[[0,0.5],[1,0.5]];portConstraint=eastwest;dropTarget=0;fontSize=12;fontStyle=0" parent="IQ13Ngc54RjAF5gL2J---2" vertex="1">
          <mxGeometry y="212" width="220" height="26" as="geometry"/>
        </mxCell>
        <mxCell id="IQ13Ngc54RjAF5gL2J---18" value="" style="shape=partialRectangle;top=0;left=0;bottom=0;fillColor=none;align=left;verticalAlign=top;spacingLeft=4;spacingRight=4;overflow=hidden;rotatable=0;points=[];portConstraint=eastwest;part=1;fontSize=12;fontStyle=0" parent="IQ13Ngc54RjAF5gL2J---17" vertex="1" connectable="0">
          <mxGeometry width="30" height="26" as="geometry"/>
        </mxCell>
        <mxCell id="IQ13Ngc54RjAF5gL2J---19" value="Manager boolean" style="shape=partialRectangle;top=0;left=0;right=0;bottom=0;align=left;verticalAlign=top;fillColor=none;spacingLeft=34;spacingRight=4;overflow=hidden;rotatable=0;points=[[0,0.5],[1,0.5]];portConstraint=eastwest;dropTarget=0;fontSize=12;fontStyle=0" parent="IQ13Ngc54RjAF5gL2J---2" vertex="1">
          <mxGeometry y="238" width="220" height="26" as="geometry"/>
        </mxCell>
        <mxCell id="IQ13Ngc54RjAF5gL2J---20" value="" style="shape=partialRectangle;top=0;left=0;bottom=0;fillColor=none;align=left;verticalAlign=top;spacingLeft=4;spacingRight=4;overflow=hidden;rotatable=0;points=[];portConstraint=eastwest;part=1;fontSize=12;fontStyle=0" parent="IQ13Ngc54RjAF5gL2J---19" vertex="1" connectable="0">
          <mxGeometry width="30" height="26" as="geometry"/>
        </mxCell>
        <mxCell id="IQ13Ngc54RjAF5gL2J---11" value="" style="shape=partialRectangle;top=0;left=0;right=0;bottom=0;align=left;verticalAlign=top;fillColor=none;spacingLeft=34;spacingRight=4;overflow=hidden;rotatable=0;points=[[0,0.5],[1,0.5]];portConstraint=eastwest;dropTarget=0;fontSize=12;" parent="IQ13Ngc54RjAF5gL2J---2" vertex="1">
          <mxGeometry y="264" width="220" height="10" as="geometry"/>
        </mxCell>
        <mxCell id="IQ13Ngc54RjAF5gL2J---12" value="" style="shape=partialRectangle;top=0;left=0;bottom=0;fillColor=none;align=left;verticalAlign=top;spacingLeft=4;spacingRight=4;overflow=hidden;rotatable=0;points=[];portConstraint=eastwest;part=1;fontSize=12;" parent="IQ13Ngc54RjAF5gL2J---11" vertex="1" connectable="0">
          <mxGeometry width="30" height="10" as="geometry"/>
        </mxCell>
        <mxCell id="IQ13Ngc54RjAF5gL2J---23" value="Departement" style="swimlane;fontStyle=0;childLayout=stackLayout;horizontal=1;startSize=26;fillColor=#e0e0e0;horizontalStack=0;resizeParent=1;resizeParentMax=0;resizeLast=0;collapsible=1;marginBottom=0;swimlaneFillColor=#ffffff;align=center;fontSize=14;" parent="1" vertex="1">
          <mxGeometry x="250" y="50" width="220" height="248" as="geometry">
            <mxRectangle x="20" y="20" width="70" height="26" as="alternateBounds"/>
          </mxGeometry>
        </mxCell>
        <mxCell id="IQ13Ngc54RjAF5gL2J---24" value="Id int" style="shape=partialRectangle;top=0;left=0;right=0;bottom=1;align=left;verticalAlign=middle;fillColor=none;spacingLeft=34;spacingRight=4;overflow=hidden;rotatable=0;points=[[0,0.5],[1,0.5]];portConstraint=eastwest;dropTarget=0;fontStyle=5;fontSize=12;" parent="IQ13Ngc54RjAF5gL2J---23" vertex="1">
          <mxGeometry y="26" width="220" height="30" as="geometry"/>
        </mxCell>
        <mxCell id="IQ13Ngc54RjAF5gL2J---25" value="PK" style="shape=partialRectangle;top=0;left=0;bottom=0;fillColor=none;align=left;verticalAlign=middle;spacingLeft=4;spacingRight=4;overflow=hidden;rotatable=0;points=[];portConstraint=eastwest;part=1;fontSize=12;" parent="IQ13Ngc54RjAF5gL2J---24" vertex="1" connectable="0">
          <mxGeometry width="30" height="30" as="geometry"/>
        </mxCell>
        <mxCell id="IQ13Ngc54RjAF5gL2J---26" value="Naam varchar(255)Â " style="shape=partialRectangle;top=0;left=0;right=0;bottom=0;align=left;verticalAlign=top;fillColor=none;spacingLeft=34;spacingRight=4;overflow=hidden;rotatable=0;points=[[0,0.5],[1,0.5]];portConstraint=eastwest;dropTarget=0;fontSize=12;" parent="IQ13Ngc54RjAF5gL2J---23" vertex="1">
          <mxGeometry y="56" width="220" height="26" as="geometry"/>
        </mxCell>
        <mxCell id="IQ13Ngc54RjAF5gL2J---27" value="" style="shape=partialRectangle;top=0;left=0;bottom=0;fillColor=none;align=left;verticalAlign=top;spacingLeft=4;spacingRight=4;overflow=hidden;rotatable=0;points=[];portConstraint=eastwest;part=1;fontSize=12;" parent="IQ13Ngc54RjAF5gL2J---26" vertex="1" connectable="0">
          <mxGeometry width="30" height="26" as="geometry"/>
        </mxCell>
        <mxCell id="IQ13Ngc54RjAF5gL2J---28" value="Huisnr varchar(255)" style="shape=partialRectangle;top=0;left=0;right=0;bottom=0;align=left;verticalAlign=top;fillColor=none;spacingLeft=34;spacingRight=4;overflow=hidden;rotatable=0;points=[[0,0.5],[1,0.5]];portConstraint=eastwest;dropTarget=0;fontSize=12;" parent="IQ13Ngc54RjAF5gL2J---23" vertex="1">
          <mxGeometry y="82" width="220" height="26" as="geometry"/>
        </mxCell>
        <mxCell id="IQ13Ngc54RjAF5gL2J---29" value="" style="shape=partialRectangle;top=0;left=0;bottom=0;fillColor=none;align=left;verticalAlign=top;spacingLeft=4;spacingRight=4;overflow=hidden;rotatable=0;points=[];portConstraint=eastwest;part=1;fontSize=12;" parent="IQ13Ngc54RjAF5gL2J---28" vertex="1" connectable="0">
          <mxGeometry width="30" height="26" as="geometry"/>
        </mxCell>
        <mxCell id="IQ13Ngc54RjAF5gL2J---30" value="Straat varchar(255)" style="shape=partialRectangle;top=0;left=0;right=0;bottom=0;align=left;verticalAlign=top;fillColor=none;spacingLeft=34;spacingRight=4;overflow=hidden;rotatable=0;points=[[0,0.5],[1,0.5]];portConstraint=eastwest;dropTarget=0;fontSize=12;" parent="IQ13Ngc54RjAF5gL2J---23" vertex="1">
          <mxGeometry y="108" width="220" height="26" as="geometry"/>
        </mxCell>
        <mxCell id="IQ13Ngc54RjAF5gL2J---31" value="" style="shape=partialRectangle;top=0;left=0;bottom=0;fillColor=none;align=left;verticalAlign=top;spacingLeft=4;spacingRight=4;overflow=hidden;rotatable=0;points=[];portConstraint=eastwest;part=1;fontSize=12;" parent="IQ13Ngc54RjAF5gL2J---30" vertex="1" connectable="0">
          <mxGeometry width="30" height="26" as="geometry"/>
        </mxCell>
        <mxCell id="IQ13Ngc54RjAF5gL2J---32" value="Gemeente varchar(255)" style="shape=partialRectangle;top=0;left=0;right=0;bottom=0;align=left;verticalAlign=top;fillColor=none;spacingLeft=34;spacingRight=4;overflow=hidden;rotatable=0;points=[[0,0.5],[1,0.5]];portConstraint=eastwest;dropTarget=0;fontSize=12;fontStyle=0" parent="IQ13Ngc54RjAF5gL2J---23" vertex="1">
          <mxGeometry y="134" width="220" height="26" as="geometry"/>
        </mxCell>
        <mxCell id="IQ13Ngc54RjAF5gL2J---33" value="" style="shape=partialRectangle;top=0;left=0;bottom=0;fillColor=none;align=left;verticalAlign=top;spacingLeft=4;spacingRight=4;overflow=hidden;rotatable=0;points=[];portConstraint=eastwest;part=1;fontSize=12;fontStyle=0" parent="IQ13Ngc54RjAF5gL2J---32" vertex="1" connectable="0">
          <mxGeometry width="30" height="26" as="geometry"/>
        </mxCell>
        <mxCell id="IQ13Ngc54RjAF5gL2J---34" value="Postcode int" style="shape=partialRectangle;top=0;left=0;right=0;bottom=0;align=left;verticalAlign=top;fillColor=none;spacingLeft=34;spacingRight=4;overflow=hidden;rotatable=0;points=[[0,0.5],[1,0.5]];portConstraint=eastwest;dropTarget=0;fontSize=12;fontStyle=0" parent="IQ13Ngc54RjAF5gL2J---23" vertex="1">
          <mxGeometry y="160" width="220" height="26" as="geometry"/>
        </mxCell>
        <mxCell id="IQ13Ngc54RjAF5gL2J---35" value="" style="shape=partialRectangle;top=0;left=0;bottom=0;fillColor=none;align=left;verticalAlign=top;spacingLeft=4;spacingRight=4;overflow=hidden;rotatable=0;points=[];portConstraint=eastwest;part=1;fontSize=12;fontStyle=0" parent="IQ13Ngc54RjAF5gL2J---34" vertex="1" connectable="0">
          <mxGeometry width="30" height="26" as="geometry"/>
        </mxCell>
        <mxCell id="IQ13Ngc54RjAF5gL2J---36" value="Land varchar(255)" style="shape=partialRectangle;top=0;left=0;right=0;bottom=0;align=left;verticalAlign=top;fillColor=none;spacingLeft=34;spacingRight=4;overflow=hidden;rotatable=0;points=[[0,0.5],[1,0.5]];portConstraint=eastwest;dropTarget=0;fontSize=12;fontStyle=0" parent="IQ13Ngc54RjAF5gL2J---23" vertex="1">
          <mxGeometry y="186" width="220" height="26" as="geometry"/>
        </mxCell>
        <mxCell id="IQ13Ngc54RjAF5gL2J---37" value="" style="shape=partialRectangle;top=0;left=0;bottom=0;fillColor=none;align=left;verticalAlign=top;spacingLeft=4;spacingRight=4;overflow=hidden;rotatable=0;points=[];portConstraint=eastwest;part=1;fontSize=12;fontStyle=0" parent="IQ13Ngc54RjAF5gL2J---36" vertex="1" connectable="0">
          <mxGeometry width="30" height="26" as="geometry"/>
        </mxCell>
        <mxCell id="IQ13Ngc54RjAF5gL2J---44" value="Code int UNIQUE" style="shape=partialRectangle;top=0;left=0;right=0;bottom=0;align=left;verticalAlign=top;fillColor=none;spacingLeft=34;spacingRight=4;overflow=hidden;rotatable=0;points=[[0,0.5],[1,0.5]];portConstraint=eastwest;dropTarget=0;fontSize=12;fontStyle=0" parent="IQ13Ngc54RjAF5gL2J---23" vertex="1">
          <mxGeometry y="212" width="220" height="26" as="geometry"/>
        </mxCell>
        <mxCell id="IQ13Ngc54RjAF5gL2J---45" value="" style="shape=partialRectangle;top=0;left=0;bottom=0;fillColor=none;align=left;verticalAlign=top;spacingLeft=4;spacingRight=4;overflow=hidden;rotatable=0;points=[];portConstraint=eastwest;part=1;fontSize=12;fontStyle=0" parent="IQ13Ngc54RjAF5gL2J---44" vertex="1" connectable="0">
          <mxGeometry width="30" height="26" as="geometry"/>
        </mxCell>
        <mxCell id="IQ13Ngc54RjAF5gL2J---42" value="" style="shape=partialRectangle;top=0;left=0;right=0;bottom=0;align=left;verticalAlign=top;fillColor=none;spacingLeft=34;spacingRight=4;overflow=hidden;rotatable=0;points=[[0,0.5],[1,0.5]];portConstraint=eastwest;dropTarget=0;fontSize=12;" parent="IQ13Ngc54RjAF5gL2J---23" vertex="1">
          <mxGeometry y="238" width="220" height="10" as="geometry"/>
        </mxCell>
        <mxCell id="IQ13Ngc54RjAF5gL2J---43" value="" style="shape=partialRectangle;top=0;left=0;bottom=0;fillColor=none;align=left;verticalAlign=top;spacingLeft=4;spacingRight=4;overflow=hidden;rotatable=0;points=[];portConstraint=eastwest;part=1;fontSize=12;" parent="IQ13Ngc54RjAF5gL2J---42" vertex="1" connectable="0">
          <mxGeometry width="30" height="10" as="geometry"/>
        </mxCell>
        <mxCell id="IQ13Ngc54RjAF5gL2J---68" value="Weapon" style="swimlane;fontStyle=0;childLayout=stackLayout;horizontal=1;startSize=26;fillColor=#e0e0e0;horizontalStack=0;resizeParent=1;resizeParentMax=0;resizeLast=0;collapsible=1;marginBottom=0;swimlaneFillColor=#ffffff;align=center;fontSize=14;" parent="1" vertex="1">
          <mxGeometry x="510" y="50" width="220" height="248" as="geometry">
            <mxRectangle x="20" y="20" width="70" height="26" as="alternateBounds"/>
          </mxGeometry>
        </mxCell>
        <mxCell id="IQ13Ngc54RjAF5gL2J---69" value="Id int" style="shape=partialRectangle;top=0;left=0;right=0;bottom=1;align=left;verticalAlign=middle;fillColor=none;spacingLeft=34;spacingRight=4;overflow=hidden;rotatable=0;points=[[0,0.5],[1,0.5]];portConstraint=eastwest;dropTarget=0;fontStyle=5;fontSize=12;" parent="IQ13Ngc54RjAF5gL2J---68" vertex="1">
          <mxGeometry y="26" width="220" height="30" as="geometry"/>
        </mxCell>
        <mxCell id="IQ13Ngc54RjAF5gL2J---70" value="PK" style="shape=partialRectangle;top=0;left=0;bottom=0;fillColor=none;align=left;verticalAlign=middle;spacingLeft=4;spacingRight=4;overflow=hidden;rotatable=0;points=[];portConstraint=eastwest;part=1;fontSize=12;" parent="IQ13Ngc54RjAF5gL2J---69" vertex="1" connectable="0">
          <mxGeometry width="30" height="30" as="geometry"/>
        </mxCell>
        <mxCell id="IQ13Ngc54RjAF5gL2J---71" value="Name varchar(255)Â " style="shape=partialRectangle;top=0;left=0;right=0;bottom=0;align=left;verticalAlign=top;fillColor=none;spacingLeft=34;spacingRight=4;overflow=hidden;rotatable=0;points=[[0,0.5],[1,0.5]];portConstraint=eastwest;dropTarget=0;fontSize=12;" parent="IQ13Ngc54RjAF5gL2J---68" vertex="1">
          <mxGeometry y="56" width="220" height="26" as="geometry"/>
        </mxCell>
        <mxCell id="IQ13Ngc54RjAF5gL2J---72" value="" style="shape=partialRectangle;top=0;left=0;bottom=0;fillColor=none;align=left;verticalAlign=top;spacingLeft=4;spacingRight=4;overflow=hidden;rotatable=0;points=[];portConstraint=eastwest;part=1;fontSize=12;" parent="IQ13Ngc54RjAF5gL2J---71" vertex="1" connectable="0">
          <mxGeometry width="30" height="26" as="geometry"/>
        </mxCell>
        <mxCell id="IQ13Ngc54RjAF5gL2J---73" value="Level int" style="shape=partialRectangle;top=0;left=0;right=0;bottom=0;align=left;verticalAlign=top;fillColor=none;spacingLeft=34;spacingRight=4;overflow=hidden;rotatable=0;points=[[0,0.5],[1,0.5]];portConstraint=eastwest;dropTarget=0;fontSize=12;" parent="IQ13Ngc54RjAF5gL2J---68" vertex="1">
          <mxGeometry y="82" width="220" height="26" as="geometry"/>
        </mxCell>
        <mxCell id="IQ13Ngc54RjAF5gL2J---74" value="" style="shape=partialRectangle;top=0;left=0;bottom=0;fillColor=none;align=left;verticalAlign=top;spacingLeft=4;spacingRight=4;overflow=hidden;rotatable=0;points=[];portConstraint=eastwest;part=1;fontSize=12;" parent="IQ13Ngc54RjAF5gL2J---73" vertex="1" connectable="0">
          <mxGeometry width="30" height="26" as="geometry"/>
        </mxCell>
        <mxCell id="IQ13Ngc54RjAF5gL2J---75" value="Type varchar(255)" style="shape=partialRectangle;top=0;left=0;right=0;bottom=0;align=left;verticalAlign=top;fillColor=none;spacingLeft=34;spacingRight=4;overflow=hidden;rotatable=0;points=[[0,0.5],[1,0.5]];portConstraint=eastwest;dropTarget=0;fontSize=12;" parent="IQ13Ngc54RjAF5gL2J---68" vertex="1">
          <mxGeometry y="108" width="220" height="26" as="geometry"/>
        </mxCell>
        <mxCell id="IQ13Ngc54RjAF5gL2J---76" value="" style="shape=partialRectangle;top=0;left=0;bottom=0;fillColor=none;align=left;verticalAlign=top;spacingLeft=4;spacingRight=4;overflow=hidden;rotatable=0;points=[];portConstraint=eastwest;part=1;fontSize=12;" parent="IQ13Ngc54RjAF5gL2J---75" vertex="1" connectable="0">
          <mxGeometry width="30" height="26" as="geometry"/>
        </mxCell>
        <mxCell id="IQ13Ngc54RjAF5gL2J---81" value="Damage int" style="shape=partialRectangle;top=0;left=0;right=0;bottom=0;align=left;verticalAlign=top;fillColor=none;spacingLeft=34;spacingRight=4;overflow=hidden;rotatable=0;points=[[0,0.5],[1,0.5]];portConstraint=eastwest;dropTarget=0;fontSize=12;fontStyle=0" parent="IQ13Ngc54RjAF5gL2J---68" vertex="1">
          <mxGeometry y="134" width="220" height="26" as="geometry"/>
        </mxCell>
        <mxCell id="IQ13Ngc54RjAF5gL2J---82" value="" style="shape=partialRectangle;top=0;left=0;bottom=0;fillColor=none;align=left;verticalAlign=top;spacingLeft=4;spacingRight=4;overflow=hidden;rotatable=0;points=[];portConstraint=eastwest;part=1;fontSize=12;fontStyle=0" parent="IQ13Ngc54RjAF5gL2J---81" vertex="1" connectable="0">
          <mxGeometry width="30" height="26" as="geometry"/>
        </mxCell>
        <mxCell id="IQ13Ngc54RjAF5gL2J---83" value="Speed int" style="shape=partialRectangle;top=0;left=0;right=0;bottom=0;align=left;verticalAlign=top;fillColor=none;spacingLeft=34;spacingRight=4;overflow=hidden;rotatable=0;points=[[0,0.5],[1,0.5]];portConstraint=eastwest;dropTarget=0;fontSize=12;fontStyle=0" parent="IQ13Ngc54RjAF5gL2J---68" vertex="1">
          <mxGeometry y="160" width="220" height="26" as="geometry"/>
        </mxCell>
        <mxCell id="IQ13Ngc54RjAF5gL2J---84" value="" style="shape=partialRectangle;top=0;left=0;bottom=0;fillColor=none;align=left;verticalAlign=top;spacingLeft=4;spacingRight=4;overflow=hidden;rotatable=0;points=[];portConstraint=eastwest;part=1;fontSize=12;fontStyle=0" parent="IQ13Ngc54RjAF5gL2J---83" vertex="1" connectable="0">
          <mxGeometry width="30" height="26" as="geometry"/>
        </mxCell>
        <mxCell id="IQ13Ngc54RjAF5gL2J---87" value="Price int" style="shape=partialRectangle;top=0;left=0;right=0;bottom=0;align=left;verticalAlign=top;fillColor=none;spacingLeft=34;spacingRight=4;overflow=hidden;rotatable=0;points=[[0,0.5],[1,0.5]];portConstraint=eastwest;dropTarget=0;fontSize=12;fontStyle=0" parent="IQ13Ngc54RjAF5gL2J---68" vertex="1">
          <mxGeometry y="186" width="220" height="26" as="geometry"/>
        </mxCell>
        <mxCell id="IQ13Ngc54RjAF5gL2J---88" value="" style="shape=partialRectangle;top=0;left=0;bottom=0;fillColor=none;align=left;verticalAlign=top;spacingLeft=4;spacingRight=4;overflow=hidden;rotatable=0;points=[];portConstraint=eastwest;part=1;fontSize=12;fontStyle=0" parent="IQ13Ngc54RjAF5gL2J---87" vertex="1" connectable="0">
          <mxGeometry width="30" height="26" as="geometry"/>
        </mxCell>
        <mxCell id="IQ13Ngc54RjAF5gL2J---89" value="Rarity varchar(255)" style="shape=partialRectangle;top=0;left=0;right=0;bottom=0;align=left;verticalAlign=top;fillColor=none;spacingLeft=34;spacingRight=4;overflow=hidden;rotatable=0;points=[[0,0.5],[1,0.5]];portConstraint=eastwest;dropTarget=0;fontSize=12;fontStyle=0" parent="IQ13Ngc54RjAF5gL2J---68" vertex="1">
          <mxGeometry y="212" width="220" height="26" as="geometry"/>
        </mxCell>
        <mxCell id="IQ13Ngc54RjAF5gL2J---90" value="" style="shape=partialRectangle;top=0;left=0;bottom=0;fillColor=none;align=left;verticalAlign=top;spacingLeft=4;spacingRight=4;overflow=hidden;rotatable=0;points=[];portConstraint=eastwest;part=1;fontSize=12;fontStyle=0" parent="IQ13Ngc54RjAF5gL2J---89" vertex="1" connectable="0">
          <mxGeometry width="30" height="26" as="geometry"/>
        </mxCell>
        <mxCell id="IQ13Ngc54RjAF5gL2J---85" value="" style="shape=partialRectangle;top=0;left=0;right=0;bottom=0;align=left;verticalAlign=top;fillColor=none;spacingLeft=34;spacingRight=4;overflow=hidden;rotatable=0;points=[[0,0.5],[1,0.5]];portConstraint=eastwest;dropTarget=0;fontSize=12;" parent="IQ13Ngc54RjAF5gL2J---68" vertex="1">
          <mxGeometry y="238" width="220" height="10" as="geometry"/>
        </mxCell>
        <mxCell id="IQ13Ngc54RjAF5gL2J---86" value="" style="shape=partialRectangle;top=0;left=0;bottom=0;fillColor=none;align=left;verticalAlign=top;spacingLeft=4;spacingRight=4;overflow=hidden;rotatable=0;points=[];portConstraint=eastwest;part=1;fontSize=12;" parent="IQ13Ngc54RjAF5gL2J---85" vertex="1" connectable="0">
          <mxGeometry width="30" height="10" as="geometry"/>
        </mxCell>
        <mxCell id="IQ13Ngc54RjAF5gL2J---91" value="&lt;font style=&quot;font-size: 20px&quot;&gt;3.Contacten&lt;/font&gt;" style="text;html=1;align=center;verticalAlign=middle;resizable=0;points=[];autosize=1;" parent="1" vertex="1">
          <mxGeometry y="360" width="120" height="20" as="geometry"/>
        </mxCell>
        <mxCell id="IQ13Ngc54RjAF5gL2J---95" value="Contactpersoon" style="swimlane;fontStyle=0;childLayout=stackLayout;horizontal=1;startSize=26;fillColor=#e0e0e0;horizontalStack=0;resizeParent=1;resizeParentMax=0;resizeLast=0;collapsible=1;marginBottom=0;swimlaneFillColor=#ffffff;align=center;fontSize=14;" parent="1" vertex="1">
          <mxGeometry x="10" y="400" width="180" height="238" as="geometry">
            <mxRectangle x="20" y="20" width="70" height="26" as="alternateBounds"/>
          </mxGeometry>
        </mxCell>
        <mxCell id="IQ13Ngc54RjAF5gL2J---96" value="Id int" style="shape=partialRectangle;top=0;left=0;right=0;bottom=1;align=left;verticalAlign=middle;fillColor=none;spacingLeft=34;spacingRight=4;overflow=hidden;rotatable=0;points=[[0,0.5],[1,0.5]];portConstraint=eastwest;dropTarget=0;fontStyle=5;fontSize=12;" parent="IQ13Ngc54RjAF5gL2J---95" vertex="1">
          <mxGeometry y="26" width="180" height="30" as="geometry"/>
        </mxCell>
        <mxCell id="IQ13Ngc54RjAF5gL2J---97" value="PK" style="shape=partialRectangle;top=0;left=0;bottom=0;fillColor=none;align=left;verticalAlign=middle;spacingLeft=4;spacingRight=4;overflow=hidden;rotatable=0;points=[];portConstraint=eastwest;part=1;fontSize=12;" parent="IQ13Ngc54RjAF5gL2J---96" vertex="1" connectable="0">
          <mxGeometry width="30" height="30" as="geometry"/>
        </mxCell>
        <mxCell id="IQ13Ngc54RjAF5gL2J---98" value="Voornaam varchar(255)Â " style="shape=partialRectangle;top=0;left=0;right=0;bottom=0;align=left;verticalAlign=top;fillColor=none;spacingLeft=34;spacingRight=4;overflow=hidden;rotatable=0;points=[[0,0.5],[1,0.5]];portConstraint=eastwest;dropTarget=0;fontSize=12;" parent="IQ13Ngc54RjAF5gL2J---95" vertex="1">
          <mxGeometry y="56" width="180" height="26" as="geometry"/>
        </mxCell>
        <mxCell id="IQ13Ngc54RjAF5gL2J---99" value="" style="shape=partialRectangle;top=0;left=0;bottom=0;fillColor=none;align=left;verticalAlign=top;spacingLeft=4;spacingRight=4;overflow=hidden;rotatable=0;points=[];portConstraint=eastwest;part=1;fontSize=12;" parent="IQ13Ngc54RjAF5gL2J---98" vertex="1" connectable="0">
          <mxGeometry width="30" height="26" as="geometry"/>
        </mxCell>
        <mxCell id="IQ13Ngc54RjAF5gL2J---100" value="Achternaam varchar(255)" style="shape=partialRectangle;top=0;left=0;right=0;bottom=0;align=left;verticalAlign=top;fillColor=none;spacingLeft=34;spacingRight=4;overflow=hidden;rotatable=0;points=[[0,0.5],[1,0.5]];portConstraint=eastwest;dropTarget=0;fontSize=12;" parent="IQ13Ngc54RjAF5gL2J---95" vertex="1">
          <mxGeometry y="82" width="180" height="26" as="geometry"/>
        </mxCell>
        <mxCell id="IQ13Ngc54RjAF5gL2J---101" value="" style="shape=partialRectangle;top=0;left=0;bottom=0;fillColor=none;align=left;verticalAlign=top;spacingLeft=4;spacingRight=4;overflow=hidden;rotatable=0;points=[];portConstraint=eastwest;part=1;fontSize=12;" parent="IQ13Ngc54RjAF5gL2J---100" vertex="1" connectable="0">
          <mxGeometry width="30" height="26" as="geometry"/>
        </mxCell>
        <mxCell id="IQ13Ngc54RjAF5gL2J---102" value="Huisnr varchar(255)" style="shape=partialRectangle;top=0;left=0;right=0;bottom=0;align=left;verticalAlign=top;fillColor=none;spacingLeft=34;spacingRight=4;overflow=hidden;rotatable=0;points=[[0,0.5],[1,0.5]];portConstraint=eastwest;dropTarget=0;fontSize=12;" parent="IQ13Ngc54RjAF5gL2J---95" vertex="1">
          <mxGeometry y="108" width="180" height="26" as="geometry"/>
        </mxCell>
        <mxCell id="IQ13Ngc54RjAF5gL2J---103" value="" style="shape=partialRectangle;top=0;left=0;bottom=0;fillColor=none;align=left;verticalAlign=top;spacingLeft=4;spacingRight=4;overflow=hidden;rotatable=0;points=[];portConstraint=eastwest;part=1;fontSize=12;" parent="IQ13Ngc54RjAF5gL2J---102" vertex="1" connectable="0">
          <mxGeometry width="30" height="26" as="geometry"/>
        </mxCell>
        <mxCell id="IQ13Ngc54RjAF5gL2J---104" value="Straat varchar(255)" style="shape=partialRectangle;top=0;left=0;right=0;bottom=0;align=left;verticalAlign=top;fillColor=none;spacingLeft=34;spacingRight=4;overflow=hidden;rotatable=0;points=[[0,0.5],[1,0.5]];portConstraint=eastwest;dropTarget=0;fontSize=12;fontStyle=0" parent="IQ13Ngc54RjAF5gL2J---95" vertex="1">
          <mxGeometry y="134" width="180" height="26" as="geometry"/>
        </mxCell>
        <mxCell id="IQ13Ngc54RjAF5gL2J---105" value="" style="shape=partialRectangle;top=0;left=0;bottom=0;fillColor=none;align=left;verticalAlign=top;spacingLeft=4;spacingRight=4;overflow=hidden;rotatable=0;points=[];portConstraint=eastwest;part=1;fontSize=12;fontStyle=0" parent="IQ13Ngc54RjAF5gL2J---104" vertex="1" connectable="0">
          <mxGeometry width="30" height="26" as="geometry"/>
        </mxCell>
        <mxCell id="IQ13Ngc54RjAF5gL2J---106" value="Gemeente varchar(255)" style="shape=partialRectangle;top=0;left=0;right=0;bottom=0;align=left;verticalAlign=top;fillColor=none;spacingLeft=34;spacingRight=4;overflow=hidden;rotatable=0;points=[[0,0.5],[1,0.5]];portConstraint=eastwest;dropTarget=0;fontSize=12;fontStyle=0" parent="IQ13Ngc54RjAF5gL2J---95" vertex="1">
          <mxGeometry y="160" width="180" height="26" as="geometry"/>
        </mxCell>
        <mxCell id="IQ13Ngc54RjAF5gL2J---107" value="" style="shape=partialRectangle;top=0;left=0;bottom=0;fillColor=none;align=left;verticalAlign=top;spacingLeft=4;spacingRight=4;overflow=hidden;rotatable=0;points=[];portConstraint=eastwest;part=1;fontSize=12;fontStyle=0" parent="IQ13Ngc54RjAF5gL2J---106" vertex="1" connectable="0">
          <mxGeometry width="30" height="26" as="geometry"/>
        </mxCell>
        <mxCell id="IQ13Ngc54RjAF5gL2J---108" value="Postcode intÂ " style="shape=partialRectangle;top=0;left=0;right=0;bottom=0;align=left;verticalAlign=top;fillColor=none;spacingLeft=34;spacingRight=4;overflow=hidden;rotatable=0;points=[[0,0.5],[1,0.5]];portConstraint=eastwest;dropTarget=0;fontSize=12;fontStyle=0" parent="IQ13Ngc54RjAF5gL2J---95" vertex="1">
          <mxGeometry y="186" width="180" height="26" as="geometry"/>
        </mxCell>
        <mxCell id="IQ13Ngc54RjAF5gL2J---109" value="" style="shape=partialRectangle;top=0;left=0;bottom=0;fillColor=none;align=left;verticalAlign=top;spacingLeft=4;spacingRight=4;overflow=hidden;rotatable=0;points=[];portConstraint=eastwest;part=1;fontSize=12;fontStyle=0" parent="IQ13Ngc54RjAF5gL2J---108" vertex="1" connectable="0">
          <mxGeometry width="30" height="26" as="geometry"/>
        </mxCell>
        <mxCell id="IQ13Ngc54RjAF5gL2J---172" value="Land varchar(255)" style="shape=partialRectangle;top=0;left=0;right=0;bottom=0;align=left;verticalAlign=top;fillColor=none;spacingLeft=34;spacingRight=4;overflow=hidden;rotatable=0;points=[[0,0.5],[1,0.5]];portConstraint=eastwest;dropTarget=0;fontSize=12;fontStyle=0" parent="IQ13Ngc54RjAF5gL2J---95" vertex="1">
          <mxGeometry y="212" width="180" height="26" as="geometry"/>
        </mxCell>
        <mxCell id="IQ13Ngc54RjAF5gL2J---173" value="" style="shape=partialRectangle;top=0;left=0;bottom=0;fillColor=none;align=left;verticalAlign=top;spacingLeft=4;spacingRight=4;overflow=hidden;rotatable=0;points=[];portConstraint=eastwest;part=1;fontSize=12;fontStyle=0" parent="IQ13Ngc54RjAF5gL2J---172" vertex="1" connectable="0">
          <mxGeometry width="30" height="26" as="geometry"/>
        </mxCell>
        <mxCell id="IQ13Ngc54RjAF5gL2J---118" value="e-mail" style="swimlane;fontStyle=0;childLayout=stackLayout;horizontal=1;startSize=26;fillColor=#e0e0e0;horizontalStack=0;resizeParent=1;resizeParentMax=0;resizeLast=0;collapsible=1;marginBottom=0;swimlaneFillColor=#ffffff;align=center;fontSize=14;" parent="1" vertex="1">
          <mxGeometry x="230" y="400" width="220" height="118" as="geometry">
            <mxRectangle x="20" y="20" width="70" height="26" as="alternateBounds"/>
          </mxGeometry>
        </mxCell>
        <mxCell id="IQ13Ngc54RjAF5gL2J---119" value="Id int" style="shape=partialRectangle;top=0;left=0;right=0;bottom=1;align=left;verticalAlign=middle;fillColor=none;spacingLeft=34;spacingRight=4;overflow=hidden;rotatable=0;points=[[0,0.5],[1,0.5]];portConstraint=eastwest;dropTarget=0;fontStyle=5;fontSize=12;" parent="IQ13Ngc54RjAF5gL2J---118" vertex="1">
          <mxGeometry y="26" width="220" height="30" as="geometry"/>
        </mxCell>
        <mxCell id="IQ13Ngc54RjAF5gL2J---120" value="PK" style="shape=partialRectangle;top=0;left=0;bottom=0;fillColor=none;align=left;verticalAlign=middle;spacingLeft=4;spacingRight=4;overflow=hidden;rotatable=0;points=[];portConstraint=eastwest;part=1;fontSize=12;" parent="IQ13Ngc54RjAF5gL2J---119" vertex="1" connectable="0">
          <mxGeometry width="30" height="30" as="geometry"/>
        </mxCell>
        <mxCell id="IQ13Ngc54RjAF5gL2J---121" value="Emailadres varchar(255)Â " style="shape=partialRectangle;top=0;left=0;right=0;bottom=0;align=left;verticalAlign=top;fillColor=none;spacingLeft=34;spacingRight=4;overflow=hidden;rotatable=0;points=[[0,0.5],[1,0.5]];portConstraint=eastwest;dropTarget=0;fontSize=12;" parent="IQ13Ngc54RjAF5gL2J---118" vertex="1">
          <mxGeometry y="56" width="220" height="26" as="geometry"/>
        </mxCell>
        <mxCell id="IQ13Ngc54RjAF5gL2J---122" value="" style="shape=partialRectangle;top=0;left=0;bottom=0;fillColor=none;align=left;verticalAlign=top;spacingLeft=4;spacingRight=4;overflow=hidden;rotatable=0;points=[];portConstraint=eastwest;part=1;fontSize=12;" parent="IQ13Ngc54RjAF5gL2J---121" vertex="1" connectable="0">
          <mxGeometry width="30" height="26" as="geometry"/>
        </mxCell>
        <mxCell id="IQ13Ngc54RjAF5gL2J---175" value="PersoonId int" style="shape=partialRectangle;top=0;left=0;right=0;bottom=0;align=left;verticalAlign=top;fillColor=none;spacingLeft=34;spacingRight=4;overflow=hidden;rotatable=0;points=[[0,0.5],[1,0.5]];portConstraint=eastwest;dropTarget=0;fontSize=12;fontStyle=2" parent="IQ13Ngc54RjAF5gL2J---118" vertex="1">
          <mxGeometry y="82" width="220" height="26" as="geometry"/>
        </mxCell>
        <mxCell id="IQ13Ngc54RjAF5gL2J---176" value="FK" style="shape=partialRectangle;top=0;left=0;bottom=0;fillColor=none;align=left;verticalAlign=top;spacingLeft=4;spacingRight=4;overflow=hidden;rotatable=0;points=[];portConstraint=eastwest;part=1;fontSize=12;" parent="IQ13Ngc54RjAF5gL2J---175" vertex="1" connectable="0">
          <mxGeometry width="30" height="26" as="geometry"/>
        </mxCell>
        <mxCell id="IQ13Ngc54RjAF5gL2J---135" value="" style="shape=partialRectangle;top=0;left=0;right=0;bottom=0;align=left;verticalAlign=top;fillColor=none;spacingLeft=34;spacingRight=4;overflow=hidden;rotatable=0;points=[[0,0.5],[1,0.5]];portConstraint=eastwest;dropTarget=0;fontSize=12;" parent="IQ13Ngc54RjAF5gL2J---118" vertex="1">
          <mxGeometry y="108" width="220" height="10" as="geometry"/>
        </mxCell>
        <mxCell id="IQ13Ngc54RjAF5gL2J---136" value="" style="shape=partialRectangle;top=0;left=0;bottom=0;fillColor=none;align=left;verticalAlign=top;spacingLeft=4;spacingRight=4;overflow=hidden;rotatable=0;points=[];portConstraint=eastwest;part=1;fontSize=12;" parent="IQ13Ngc54RjAF5gL2J---135" vertex="1" connectable="0">
          <mxGeometry width="30" height="10" as="geometry"/>
        </mxCell>
        <mxCell id="IQ13Ngc54RjAF5gL2J---157" value="&lt;font style=&quot;font-size: 20px&quot;&gt;4.Relaties&lt;br&gt;&lt;/font&gt;" style="text;html=1;align=center;verticalAlign=middle;resizable=0;points=[];autosize=1;" parent="1" vertex="1">
          <mxGeometry x="10" y="660" width="100" height="20" as="geometry"/>
        </mxCell>
        <mxCell id="IQ13Ngc54RjAF5gL2J---270" value="" style="edgeStyle=orthogonalEdgeStyle;rounded=0;orthogonalLoop=1;jettySize=auto;html=1;dashed=1;startArrow=ERzeroToMany;startFill=1;endArrow=ERone;endFill=0;exitX=1;exitY=0.5;exitDx=0;exitDy=0;" parent="1" source="IQ13Ngc54RjAF5gL2J---246" target="IQ13Ngc54RjAF5gL2J---185" edge="1">
          <mxGeometry relative="1" as="geometry"/>
        </mxCell>
        <mxCell id="IQ13Ngc54RjAF5gL2J---158" value="Werknemers" style="swimlane;fontStyle=0;childLayout=stackLayout;horizontal=1;startSize=26;fillColor=#e0e0e0;horizontalStack=0;resizeParent=1;resizeParentMax=0;resizeLast=0;collapsible=1;marginBottom=0;swimlaneFillColor=#ffffff;align=center;fontSize=14;" parent="1" vertex="1">
          <mxGeometry x="10" y="735" width="180" height="82" as="geometry"/>
        </mxCell>
        <mxCell id="IQ13Ngc54RjAF5gL2J---159" value="Id int" style="shape=partialRectangle;top=0;left=0;right=0;bottom=1;align=left;verticalAlign=middle;fillColor=none;spacingLeft=34;spacingRight=4;overflow=hidden;rotatable=0;points=[[0,0.5],[1,0.5]];portConstraint=eastwest;dropTarget=0;fontStyle=5;fontSize=12;" parent="IQ13Ngc54RjAF5gL2J---158" vertex="1">
          <mxGeometry y="26" width="180" height="30" as="geometry"/>
        </mxCell>
        <mxCell id="IQ13Ngc54RjAF5gL2J---160" value="PK" style="shape=partialRectangle;top=0;left=0;bottom=0;fillColor=none;align=left;verticalAlign=middle;spacingLeft=4;spacingRight=4;overflow=hidden;rotatable=0;points=[];portConstraint=eastwest;part=1;fontSize=12;" parent="IQ13Ngc54RjAF5gL2J---159" vertex="1" connectable="0">
          <mxGeometry width="30" height="30" as="geometry"/>
        </mxCell>
        <mxCell id="IQ13Ngc54RjAF5gL2J---246" value="JobId" style="shape=partialRectangle;top=0;left=0;right=0;bottom=0;align=left;verticalAlign=top;fillColor=none;spacingLeft=34;spacingRight=4;overflow=hidden;rotatable=0;points=[[0,0.5],[1,0.5]];portConstraint=eastwest;dropTarget=0;fontSize=12;" parent="IQ13Ngc54RjAF5gL2J---158" vertex="1">
          <mxGeometry y="56" width="180" height="26" as="geometry"/>
        </mxCell>
        <mxCell id="IQ13Ngc54RjAF5gL2J---247" value="" style="shape=partialRectangle;top=0;left=0;bottom=0;fillColor=none;align=left;verticalAlign=top;spacingLeft=4;spacingRight=4;overflow=hidden;rotatable=0;points=[];portConstraint=eastwest;part=1;fontSize=12;" parent="IQ13Ngc54RjAF5gL2J---246" vertex="1" connectable="0">
          <mxGeometry width="30" height="26" as="geometry"/>
        </mxCell>
        <mxCell id="IQ13Ngc54RjAF5gL2J---169" value="&lt;font style=&quot;font-size: 20px&quot;&gt;A.Werknemers)&lt;br&gt;&lt;/font&gt;" style="text;html=1;align=center;verticalAlign=middle;resizable=0;points=[];autosize=1;" parent="1" vertex="1">
          <mxGeometry x="10" y="700" width="150" height="20" as="geometry"/>
        </mxCell>
        <mxCell id="IQ13Ngc54RjAF5gL2J---177" value="" style="edgeStyle=orthogonalEdgeStyle;rounded=0;orthogonalLoop=1;jettySize=auto;html=1;startArrow=ERzeroToMany;startFill=1;endArrow=ERone;endFill=0;entryX=1;entryY=0.5;entryDx=0;entryDy=0;dashed=1;" parent="1" source="IQ13Ngc54RjAF5gL2J---175" target="IQ13Ngc54RjAF5gL2J---96" edge="1">
          <mxGeometry relative="1" as="geometry">
            <mxPoint x="200" y="495" as="targetPoint"/>
            <Array as="points">
              <mxPoint x="210" y="495"/>
              <mxPoint x="210" y="441"/>
            </Array>
          </mxGeometry>
        </mxCell>
        <mxCell id="IQ13Ngc54RjAF5gL2J---184" value="Job" style="swimlane;fontStyle=0;childLayout=stackLayout;horizontal=1;startSize=26;fillColor=#e0e0e0;horizontalStack=0;resizeParent=1;resizeParentMax=0;resizeLast=0;collapsible=1;marginBottom=0;swimlaneFillColor=#ffffff;align=center;fontSize=14;" parent="1" vertex="1">
          <mxGeometry x="245" y="730" width="190" height="92" as="geometry"/>
        </mxCell>
        <mxCell id="IQ13Ngc54RjAF5gL2J---185" value="Id int" style="shape=partialRectangle;top=0;left=0;right=0;bottom=1;align=left;verticalAlign=middle;fillColor=none;spacingLeft=34;spacingRight=4;overflow=hidden;rotatable=0;points=[[0,0.5],[1,0.5]];portConstraint=eastwest;dropTarget=0;fontStyle=5;fontSize=12;" parent="IQ13Ngc54RjAF5gL2J---184" vertex="1">
          <mxGeometry y="26" width="190" height="30" as="geometry"/>
        </mxCell>
        <mxCell id="IQ13Ngc54RjAF5gL2J---186" value="PK" style="shape=partialRectangle;top=0;left=0;bottom=0;fillColor=none;align=left;verticalAlign=middle;spacingLeft=4;spacingRight=4;overflow=hidden;rotatable=0;points=[];portConstraint=eastwest;part=1;fontSize=12;" parent="IQ13Ngc54RjAF5gL2J---185" vertex="1" connectable="0">
          <mxGeometry width="30" height="30" as="geometry"/>
        </mxCell>
        <mxCell id="IQ13Ngc54RjAF5gL2J---199" value="Status varchar(255)" style="shape=partialRectangle;top=0;left=0;right=0;bottom=0;align=left;verticalAlign=top;fillColor=none;spacingLeft=34;spacingRight=4;overflow=hidden;rotatable=0;points=[[0,0.5],[1,0.5]];portConstraint=eastwest;dropTarget=0;fontSize=12;fontStyle=0" parent="IQ13Ngc54RjAF5gL2J---184" vertex="1">
          <mxGeometry y="56" width="190" height="26" as="geometry"/>
        </mxCell>
        <mxCell id="IQ13Ngc54RjAF5gL2J---200" value="" style="shape=partialRectangle;top=0;left=0;bottom=0;fillColor=none;align=left;verticalAlign=top;spacingLeft=4;spacingRight=4;overflow=hidden;rotatable=0;points=[];portConstraint=eastwest;part=1;fontSize=12;" parent="IQ13Ngc54RjAF5gL2J---199" vertex="1" connectable="0">
          <mxGeometry width="30" height="26" as="geometry"/>
        </mxCell>
        <mxCell id="IQ13Ngc54RjAF5gL2J---193" value="" style="shape=partialRectangle;top=0;left=0;right=0;bottom=0;align=left;verticalAlign=top;fillColor=none;spacingLeft=34;spacingRight=4;overflow=hidden;rotatable=0;points=[[0,0.5],[1,0.5]];portConstraint=eastwest;dropTarget=0;fontSize=12;" parent="IQ13Ngc54RjAF5gL2J---184" vertex="1">
          <mxGeometry y="82" width="190" height="10" as="geometry"/>
        </mxCell>
        <mxCell id="IQ13Ngc54RjAF5gL2J---194" value="" style="shape=partialRectangle;top=0;left=0;bottom=0;fillColor=none;align=left;verticalAlign=top;spacingLeft=4;spacingRight=4;overflow=hidden;rotatable=0;points=[];portConstraint=eastwest;part=1;fontSize=12;" parent="IQ13Ngc54RjAF5gL2J---193" vertex="1" connectable="0">
          <mxGeometry width="30" height="10" as="geometry"/>
        </mxCell>
        <mxCell id="IQ13Ngc54RjAF5gL2J---205" value="&lt;font style=&quot;font-size: 20px&quot;&gt;B.Opdieners)&lt;br&gt;&lt;/font&gt;" style="text;html=1;align=center;verticalAlign=middle;resizable=0;points=[];autosize=1;" parent="1" vertex="1">
          <mxGeometry x="10" y="920" width="130" height="20" as="geometry"/>
        </mxCell>
        <mxCell id="IQ13Ngc54RjAF5gL2J---206" value="Opdieners" style="swimlane;fontStyle=0;childLayout=stackLayout;horizontal=1;startSize=26;fillColor=#e0e0e0;horizontalStack=0;resizeParent=1;resizeParentMax=0;resizeLast=0;collapsible=1;marginBottom=0;swimlaneFillColor=#ffffff;align=center;fontSize=14;" parent="1" vertex="1">
          <mxGeometry x="10" y="960" width="190" height="108" as="geometry"/>
        </mxCell>
        <mxCell id="IQ13Ngc54RjAF5gL2J---207" value="Id int" style="shape=partialRectangle;top=0;left=0;right=0;bottom=1;align=left;verticalAlign=middle;fillColor=none;spacingLeft=34;spacingRight=4;overflow=hidden;rotatable=0;points=[[0,0.5],[1,0.5]];portConstraint=eastwest;dropTarget=0;fontStyle=5;fontSize=12;" parent="IQ13Ngc54RjAF5gL2J---206" vertex="1">
          <mxGeometry y="26" width="190" height="30" as="geometry"/>
        </mxCell>
        <mxCell id="IQ13Ngc54RjAF5gL2J---208" value="PK" style="shape=partialRectangle;top=0;left=0;bottom=0;fillColor=none;align=left;verticalAlign=middle;spacingLeft=4;spacingRight=4;overflow=hidden;rotatable=0;points=[];portConstraint=eastwest;part=1;fontSize=12;" parent="IQ13Ngc54RjAF5gL2J---207" vertex="1" connectable="0">
          <mxGeometry width="30" height="30" as="geometry"/>
        </mxCell>
        <mxCell id="IQ13Ngc54RjAF5gL2J---228" value="Voornaam varchar(255)Â " style="shape=partialRectangle;top=0;left=0;right=0;bottom=0;align=left;verticalAlign=top;fillColor=none;spacingLeft=34;spacingRight=4;overflow=hidden;rotatable=0;points=[[0,0.5],[1,0.5]];portConstraint=eastwest;dropTarget=0;fontSize=12;" parent="IQ13Ngc54RjAF5gL2J---206" vertex="1">
          <mxGeometry y="56" width="190" height="26" as="geometry"/>
        </mxCell>
        <mxCell id="IQ13Ngc54RjAF5gL2J---229" value="" style="shape=partialRectangle;top=0;left=0;bottom=0;fillColor=none;align=left;verticalAlign=top;spacingLeft=4;spacingRight=4;overflow=hidden;rotatable=0;points=[];portConstraint=eastwest;part=1;fontSize=12;" parent="IQ13Ngc54RjAF5gL2J---228" vertex="1" connectable="0">
          <mxGeometry width="30" height="26" as="geometry"/>
        </mxCell>
        <mxCell id="IQ13Ngc54RjAF5gL2J---230" value="Achternaam varchar(255)" style="shape=partialRectangle;top=0;left=0;right=0;bottom=0;align=left;verticalAlign=top;fillColor=none;spacingLeft=34;spacingRight=4;overflow=hidden;rotatable=0;points=[[0,0.5],[1,0.5]];portConstraint=eastwest;dropTarget=0;fontSize=12;" parent="IQ13Ngc54RjAF5gL2J---206" vertex="1">
          <mxGeometry y="82" width="190" height="26" as="geometry"/>
        </mxCell>
        <mxCell id="IQ13Ngc54RjAF5gL2J---231" value="" style="shape=partialRectangle;top=0;left=0;bottom=0;fillColor=none;align=left;verticalAlign=top;spacingLeft=4;spacingRight=4;overflow=hidden;rotatable=0;points=[];portConstraint=eastwest;part=1;fontSize=12;" parent="IQ13Ngc54RjAF5gL2J---230" vertex="1" connectable="0">
          <mxGeometry width="30" height="26" as="geometry"/>
        </mxCell>
        <mxCell id="IQ13Ngc54RjAF5gL2J---217" value="Tafel" style="swimlane;fontStyle=0;childLayout=stackLayout;horizontal=1;startSize=26;fillColor=#e0e0e0;horizontalStack=0;resizeParent=1;resizeParentMax=0;resizeLast=0;collapsible=1;marginBottom=0;swimlaneFillColor=#ffffff;align=center;fontSize=14;" parent="1" vertex="1">
          <mxGeometry x="230" y="960" width="195" height="92" as="geometry"/>
        </mxCell>
        <mxCell id="IQ13Ngc54RjAF5gL2J---218" value="Id int" style="shape=partialRectangle;top=0;left=0;right=0;bottom=1;align=left;verticalAlign=middle;fillColor=none;spacingLeft=34;spacingRight=4;overflow=hidden;rotatable=0;points=[[0,0.5],[1,0.5]];portConstraint=eastwest;dropTarget=0;fontStyle=5;fontSize=12;" parent="IQ13Ngc54RjAF5gL2J---217" vertex="1">
          <mxGeometry y="26" width="195" height="30" as="geometry"/>
        </mxCell>
        <mxCell id="IQ13Ngc54RjAF5gL2J---219" value="PK" style="shape=partialRectangle;top=0;left=0;bottom=0;fillColor=none;align=left;verticalAlign=middle;spacingLeft=4;spacingRight=4;overflow=hidden;rotatable=0;points=[];portConstraint=eastwest;part=1;fontSize=12;" parent="IQ13Ngc54RjAF5gL2J---218" vertex="1" connectable="0">
          <mxGeometry width="30" height="30" as="geometry"/>
        </mxCell>
        <mxCell id="IQ13Ngc54RjAF5gL2J---222" value="OpdienderId intÂ " style="shape=partialRectangle;top=0;left=0;right=0;bottom=0;align=left;verticalAlign=top;fillColor=none;spacingLeft=34;spacingRight=4;overflow=hidden;rotatable=0;points=[[0,0.5],[1,0.5]];portConstraint=eastwest;dropTarget=0;fontSize=12;fontStyle=2" parent="IQ13Ngc54RjAF5gL2J---217" vertex="1">
          <mxGeometry y="56" width="195" height="26" as="geometry"/>
        </mxCell>
        <mxCell id="IQ13Ngc54RjAF5gL2J---223" value="FK" style="shape=partialRectangle;top=0;left=0;bottom=0;fillColor=none;align=left;verticalAlign=top;spacingLeft=4;spacingRight=4;overflow=hidden;rotatable=0;points=[];portConstraint=eastwest;part=1;fontSize=12;" parent="IQ13Ngc54RjAF5gL2J---222" vertex="1" connectable="0">
          <mxGeometry width="30" height="26" as="geometry"/>
        </mxCell>
        <mxCell id="IQ13Ngc54RjAF5gL2J---226" value="" style="shape=partialRectangle;top=0;left=0;right=0;bottom=0;align=left;verticalAlign=top;fillColor=none;spacingLeft=34;spacingRight=4;overflow=hidden;rotatable=0;points=[[0,0.5],[1,0.5]];portConstraint=eastwest;dropTarget=0;fontSize=12;" parent="IQ13Ngc54RjAF5gL2J---217" vertex="1">
          <mxGeometry y="82" width="195" height="10" as="geometry"/>
        </mxCell>
        <mxCell id="IQ13Ngc54RjAF5gL2J---227" value="" style="shape=partialRectangle;top=0;left=0;bottom=0;fillColor=none;align=left;verticalAlign=top;spacingLeft=4;spacingRight=4;overflow=hidden;rotatable=0;points=[];portConstraint=eastwest;part=1;fontSize=12;" parent="IQ13Ngc54RjAF5gL2J---226" vertex="1" connectable="0">
          <mxGeometry width="30" height="10" as="geometry"/>
        </mxCell>
        <mxCell id="IQ13Ngc54RjAF5gL2J---232" value="Bestelingen" style="swimlane;fontStyle=0;childLayout=stackLayout;horizontal=1;startSize=26;fillColor=#e0e0e0;horizontalStack=0;resizeParent=1;resizeParentMax=0;resizeLast=0;collapsible=1;marginBottom=0;swimlaneFillColor=#ffffff;align=center;fontSize=14;" parent="1" vertex="1">
          <mxGeometry x="480" y="960" width="180" height="86" as="geometry"/>
        </mxCell>
        <mxCell id="IQ13Ngc54RjAF5gL2J---233" value="Id int" style="shape=partialRectangle;top=0;left=0;right=0;bottom=1;align=left;verticalAlign=middle;fillColor=none;spacingLeft=34;spacingRight=4;overflow=hidden;rotatable=0;points=[[0,0.5],[1,0.5]];portConstraint=eastwest;dropTarget=0;fontStyle=5;fontSize=12;" parent="IQ13Ngc54RjAF5gL2J---232" vertex="1">
          <mxGeometry y="26" width="180" height="30" as="geometry"/>
        </mxCell>
        <mxCell id="IQ13Ngc54RjAF5gL2J---234" value="PK" style="shape=partialRectangle;top=0;left=0;bottom=0;fillColor=none;align=left;verticalAlign=middle;spacingLeft=4;spacingRight=4;overflow=hidden;rotatable=0;points=[];portConstraint=eastwest;part=1;fontSize=12;" parent="IQ13Ngc54RjAF5gL2J---233" vertex="1" connectable="0">
          <mxGeometry width="30" height="30" as="geometry"/>
        </mxCell>
        <mxCell id="IQ13Ngc54RjAF5gL2J---271" value="TafelId int" style="shape=partialRectangle;top=0;left=0;right=0;bottom=1;align=left;verticalAlign=middle;fillColor=none;spacingLeft=34;spacingRight=4;overflow=hidden;rotatable=0;points=[[0,0.5],[1,0.5]];portConstraint=eastwest;dropTarget=0;fontStyle=2;fontSize=12;" parent="IQ13Ngc54RjAF5gL2J---232" vertex="1">
          <mxGeometry y="56" width="180" height="30" as="geometry"/>
        </mxCell>
        <mxCell id="IQ13Ngc54RjAF5gL2J---272" value="FK" style="shape=partialRectangle;top=0;left=0;bottom=0;fillColor=none;align=left;verticalAlign=middle;spacingLeft=4;spacingRight=4;overflow=hidden;rotatable=0;points=[];portConstraint=eastwest;part=1;fontSize=12;" parent="IQ13Ngc54RjAF5gL2J---271" vertex="1" connectable="0">
          <mxGeometry width="30" height="30" as="geometry"/>
        </mxCell>
        <mxCell id="IQ13Ngc54RjAF5gL2J---261" value="" style="edgeStyle=orthogonalEdgeStyle;rounded=0;orthogonalLoop=1;jettySize=auto;html=1;dashed=1;startArrow=ERzeroToMany;startFill=1;endArrow=ERone;endFill=0;entryX=1;entryY=0.5;entryDx=0;entryDy=0;" parent="1" source="IQ13Ngc54RjAF5gL2J---222" target="IQ13Ngc54RjAF5gL2J---207" edge="1">
          <mxGeometry relative="1" as="geometry"/>
        </mxCell>
        <mxCell id="IQ13Ngc54RjAF5gL2J---273" value="" style="edgeStyle=orthogonalEdgeStyle;rounded=0;orthogonalLoop=1;jettySize=auto;html=1;dashed=1;startArrow=ERzeroToMany;startFill=1;endArrow=ERone;endFill=0;exitX=0;exitY=0.5;exitDx=0;exitDy=0;" parent="1" source="IQ13Ngc54RjAF5gL2J---271" target="IQ13Ngc54RjAF5gL2J---218" edge="1">
          <mxGeometry relative="1" as="geometry"/>
        </mxCell>
        <mxCell id="IQ13Ngc54RjAF5gL2J---275" value="&lt;font style=&quot;font-size: 20px&quot;&gt;2.WoW Item&lt;br&gt;&lt;/font&gt;" style="text;html=1;align=center;verticalAlign=middle;resizable=0;points=[];autosize=1;" parent="1" vertex="1">
          <mxGeometry x="505" y="15" width="130" height="20" as="geometry"/>
        </mxCell>
        <mxCell id="IQ13Ngc54RjAF5gL2J---276" value="&lt;font style=&quot;font-size: 20px&quot;&gt;C.Kinderopvang)&lt;br&gt;&lt;/font&gt;" style="text;html=1;align=center;verticalAlign=middle;resizable=0;points=[];autosize=1;" parent="1" vertex="1">
          <mxGeometry x="5" y="1120" width="170" height="20" as="geometry"/>
        </mxCell>
        <mxCell id="IQ13Ngc54RjAF5gL2J---277" value="Ouders" style="swimlane;fontStyle=2;childLayout=stackLayout;horizontal=1;startSize=26;fillColor=#e0e0e0;horizontalStack=0;resizeParent=1;resizeParentMax=0;resizeLast=0;collapsible=1;marginBottom=0;swimlaneFillColor=#ffffff;align=center;fontSize=14;" parent="1" vertex="1">
          <mxGeometry x="10" y="1160" width="190" height="56" as="geometry"/>
        </mxCell>
        <mxCell id="IQ13Ngc54RjAF5gL2J---278" value="Id int" style="shape=partialRectangle;top=0;left=0;right=0;bottom=1;align=left;verticalAlign=middle;fillColor=none;spacingLeft=34;spacingRight=4;overflow=hidden;rotatable=0;points=[[0,0.5],[1,0.5]];portConstraint=eastwest;dropTarget=0;fontStyle=5;fontSize=12;" parent="IQ13Ngc54RjAF5gL2J---277" vertex="1">
          <mxGeometry y="26" width="190" height="30" as="geometry"/>
        </mxCell>
        <mxCell id="IQ13Ngc54RjAF5gL2J---279" value="PK" style="shape=partialRectangle;top=0;left=0;bottom=0;fillColor=none;align=left;verticalAlign=middle;spacingLeft=4;spacingRight=4;overflow=hidden;rotatable=0;points=[];portConstraint=eastwest;part=1;fontSize=12;" parent="IQ13Ngc54RjAF5gL2J---278" vertex="1" connectable="0">
          <mxGeometry width="30" height="30" as="geometry"/>
        </mxCell>
        <mxCell id="IQ13Ngc54RjAF5gL2J---294" value="" style="edgeStyle=orthogonalEdgeStyle;rounded=0;orthogonalLoop=1;jettySize=auto;html=1;dashed=1;startArrow=ERzeroToMany;startFill=1;endArrow=ERone;endFill=0;exitX=0;exitY=0.5;exitDx=0;exitDy=0;" parent="1" source="IQ13Ngc54RjAF5gL2J---290" target="IQ13Ngc54RjAF5gL2J---278" edge="1">
          <mxGeometry relative="1" as="geometry"/>
        </mxCell>
        <mxCell id="IQ13Ngc54RjAF5gL2J---284" value="Kinderen" style="swimlane;fontStyle=0;childLayout=stackLayout;horizontal=1;startSize=26;fillColor=#e0e0e0;horizontalStack=0;resizeParent=1;resizeParentMax=0;resizeLast=0;collapsible=1;marginBottom=0;swimlaneFillColor=#ffffff;align=center;fontSize=14;" parent="1" vertex="1">
          <mxGeometry x="245" y="1160" width="190" height="86" as="geometry"/>
        </mxCell>
        <mxCell id="IQ13Ngc54RjAF5gL2J---285" value="Id int" style="shape=partialRectangle;top=0;left=0;right=0;bottom=1;align=left;verticalAlign=middle;fillColor=none;spacingLeft=34;spacingRight=4;overflow=hidden;rotatable=0;points=[[0,0.5],[1,0.5]];portConstraint=eastwest;dropTarget=0;fontStyle=5;fontSize=12;" parent="IQ13Ngc54RjAF5gL2J---284" vertex="1">
          <mxGeometry y="26" width="190" height="30" as="geometry"/>
        </mxCell>
        <mxCell id="IQ13Ngc54RjAF5gL2J---286" value="PK" style="shape=partialRectangle;top=0;left=0;bottom=0;fillColor=none;align=left;verticalAlign=middle;spacingLeft=4;spacingRight=4;overflow=hidden;rotatable=0;points=[];portConstraint=eastwest;part=1;fontSize=12;" parent="IQ13Ngc54RjAF5gL2J---285" vertex="1" connectable="0">
          <mxGeometry width="30" height="30" as="geometry"/>
        </mxCell>
        <mxCell id="IQ13Ngc54RjAF5gL2J---290" value="OudersId intÂ " style="shape=partialRectangle;top=0;left=0;right=0;bottom=1;align=left;verticalAlign=middle;fillColor=none;spacingLeft=34;spacingRight=4;overflow=hidden;rotatable=0;points=[[0,0.5],[1,0.5]];portConstraint=eastwest;dropTarget=0;fontStyle=2;fontSize=12;" parent="IQ13Ngc54RjAF5gL2J---284" vertex="1">
          <mxGeometry y="56" width="190" height="30" as="geometry"/>
        </mxCell>
        <mxCell id="IQ13Ngc54RjAF5gL2J---291" value="FK" style="shape=partialRectangle;top=0;left=0;bottom=0;fillColor=none;align=left;verticalAlign=middle;spacingLeft=4;spacingRight=4;overflow=hidden;rotatable=0;points=[];portConstraint=eastwest;part=1;fontSize=12;" parent="IQ13Ngc54RjAF5gL2J---290" vertex="1" connectable="0">
          <mxGeometry width="30" height="30" as="geometry"/>
        </mxCell>
        <mxCell id="IQ13Ngc54RjAF5gL2J---293" value="&lt;font style=&quot;font-size: 20px&quot;&gt;D.Studenten)&lt;br&gt;&lt;/font&gt;" style="text;html=1;align=center;verticalAlign=middle;resizable=0;points=[];autosize=1;" parent="1" vertex="1">
          <mxGeometry x="25" y="1310" width="130" height="20" as="geometry"/>
        </mxCell>
        <mxCell id="NEOsGIZV13K515iA0hNl-3" value="&lt;font style=&quot;font-size: 20px&quot;&gt;5.BXLadmini&lt;/font&gt;&lt;font style=&quot;font-size: 20px&quot;&gt;)&lt;/font&gt;" style="text;html=1;align=center;verticalAlign=middle;resizable=0;points=[];autosize=1;" parent="1" vertex="1">
          <mxGeometry x="5" y="1970" width="140" height="20" as="geometry"/>
        </mxCell>
        <mxCell id="IQ13Ngc54RjAF5gL2J---295" value="Studenten" style="swimlane;fontStyle=0;childLayout=stackLayout;horizontal=1;startSize=26;fillColor=#e0e0e0;horizontalStack=0;resizeParent=1;resizeParentMax=0;resizeLast=0;collapsible=1;marginBottom=0;swimlaneFillColor=#ffffff;align=center;fontSize=14;" parent="1" vertex="1">
          <mxGeometry x="5" y="1350" width="190" height="82" as="geometry"/>
        </mxCell>
        <mxCell id="IQ13Ngc54RjAF5gL2J---296" value="Id int" style="shape=partialRectangle;top=0;left=0;right=0;bottom=1;align=left;verticalAlign=middle;fillColor=none;spacingLeft=34;spacingRight=4;overflow=hidden;rotatable=0;points=[[0,0.5],[1,0.5]];portConstraint=eastwest;dropTarget=0;fontStyle=5;fontSize=12;" parent="IQ13Ngc54RjAF5gL2J---295" vertex="1">
          <mxGeometry y="26" width="190" height="30" as="geometry"/>
        </mxCell>
        <mxCell id="IQ13Ngc54RjAF5gL2J---297" value="PK" style="shape=partialRectangle;top=0;left=0;bottom=0;fillColor=none;align=left;verticalAlign=middle;spacingLeft=4;spacingRight=4;overflow=hidden;rotatable=0;points=[];portConstraint=eastwest;part=1;fontSize=12;" parent="IQ13Ngc54RjAF5gL2J---296" vertex="1" connectable="0">
          <mxGeometry width="30" height="30" as="geometry"/>
        </mxCell>
        <mxCell id="IQ13Ngc54RjAF5gL2J---300" value="" style="shape=partialRectangle;top=0;left=0;right=0;bottom=0;align=left;verticalAlign=top;fillColor=none;spacingLeft=34;spacingRight=4;overflow=hidden;rotatable=0;points=[[0,0.5],[1,0.5]];portConstraint=eastwest;dropTarget=0;fontSize=12;" parent="IQ13Ngc54RjAF5gL2J---295" vertex="1">
          <mxGeometry y="56" width="190" height="26" as="geometry"/>
        </mxCell>
        <mxCell id="IQ13Ngc54RjAF5gL2J---301" value="" style="shape=partialRectangle;top=0;left=0;bottom=0;fillColor=none;align=left;verticalAlign=top;spacingLeft=4;spacingRight=4;overflow=hidden;rotatable=0;points=[];portConstraint=eastwest;part=1;fontSize=12;" parent="IQ13Ngc54RjAF5gL2J---300" vertex="1" connectable="0">
          <mxGeometry width="30" height="26" as="geometry"/>
        </mxCell>
        <mxCell id="IQ13Ngc54RjAF5gL2J---354" value="" style="edgeStyle=orthogonalEdgeStyle;rounded=0;orthogonalLoop=1;jettySize=auto;html=1;dashed=1;startArrow=ERzeroToMany;startFill=1;endArrow=ERone;endFill=0;entryX=1;entryY=0.5;entryDx=0;entryDy=0;" parent="1" source="IQ13Ngc54RjAF5gL2J---302" target="IQ13Ngc54RjAF5gL2J---310" edge="1">
          <mxGeometry relative="1" as="geometry">
            <mxPoint x="775" y="1391" as="targetPoint"/>
            <Array as="points">
              <mxPoint x="775" y="1420"/>
              <mxPoint x="775" y="1521"/>
            </Array>
          </mxGeometry>
        </mxCell>
        <mxCell id="IQ13Ngc54RjAF5gL2J---357" value="" style="edgeStyle=orthogonalEdgeStyle;rounded=0;orthogonalLoop=1;jettySize=auto;html=1;dashed=1;startArrow=ERzeroToMany;startFill=1;endArrow=ERone;endFill=0;entryX=1;entryY=0.5;entryDx=0;entryDy=0;exitX=0;exitY=0.5;exitDx=0;exitDy=0;" parent="1" source="IQ13Ngc54RjAF5gL2J---355" target="IQ13Ngc54RjAF5gL2J---317" edge="1">
          <mxGeometry relative="1" as="geometry">
            <mxPoint x="440" y="1600" as="targetPoint"/>
            <Array as="points">
              <mxPoint x="450" y="1445"/>
              <mxPoint x="450" y="1521"/>
            </Array>
          </mxGeometry>
        </mxCell>
        <mxCell id="IQ13Ngc54RjAF5gL2J---302" value="bijles" style="swimlane;fontStyle=0;childLayout=stackLayout;horizontal=1;startSize=26;fillColor=#e0e0e0;horizontalStack=0;resizeParent=1;resizeParentMax=0;resizeLast=0;collapsible=1;marginBottom=0;swimlaneFillColor=#ffffff;align=center;fontSize=14;" parent="1" vertex="1">
          <mxGeometry x="500" y="1350" width="195" height="108" as="geometry"/>
        </mxCell>
        <mxCell id="IQ13Ngc54RjAF5gL2J---303" value="Id int" style="shape=partialRectangle;top=0;left=0;right=0;bottom=1;align=left;verticalAlign=middle;fillColor=none;spacingLeft=34;spacingRight=4;overflow=hidden;rotatable=0;points=[[0,0.5],[1,0.5]];portConstraint=eastwest;dropTarget=0;fontStyle=5;fontSize=12;" parent="IQ13Ngc54RjAF5gL2J---302" vertex="1">
          <mxGeometry y="26" width="195" height="30" as="geometry"/>
        </mxCell>
        <mxCell id="IQ13Ngc54RjAF5gL2J---304" value="PK" style="shape=partialRectangle;top=0;left=0;bottom=0;fillColor=none;align=left;verticalAlign=middle;spacingLeft=4;spacingRight=4;overflow=hidden;rotatable=0;points=[];portConstraint=eastwest;part=1;fontSize=12;" parent="IQ13Ngc54RjAF5gL2J---303" vertex="1" connectable="0">
          <mxGeometry width="30" height="30" as="geometry"/>
        </mxCell>
        <mxCell id="IQ13Ngc54RjAF5gL2J---305" value="LesgeverId int" style="shape=partialRectangle;top=0;left=0;right=0;bottom=0;align=left;verticalAlign=top;fillColor=none;spacingLeft=34;spacingRight=4;overflow=hidden;rotatable=0;points=[[0,0.5],[1,0.5]];portConstraint=eastwest;dropTarget=0;fontSize=12;fontStyle=2" parent="IQ13Ngc54RjAF5gL2J---302" vertex="1">
          <mxGeometry y="56" width="195" height="26" as="geometry"/>
        </mxCell>
        <mxCell id="IQ13Ngc54RjAF5gL2J---306" value="FK" style="shape=partialRectangle;top=0;left=0;bottom=0;fillColor=none;align=left;verticalAlign=top;spacingLeft=4;spacingRight=4;overflow=hidden;rotatable=0;points=[];portConstraint=eastwest;part=1;fontSize=12;" parent="IQ13Ngc54RjAF5gL2J---305" vertex="1" connectable="0">
          <mxGeometry width="30" height="26" as="geometry"/>
        </mxCell>
        <mxCell id="IQ13Ngc54RjAF5gL2J---355" value="VakId int" style="shape=partialRectangle;top=0;left=0;right=0;bottom=0;align=left;verticalAlign=top;fillColor=none;spacingLeft=34;spacingRight=4;overflow=hidden;rotatable=0;points=[[0,0.5],[1,0.5]];portConstraint=eastwest;dropTarget=0;fontSize=12;fontStyle=2" parent="IQ13Ngc54RjAF5gL2J---302" vertex="1">
          <mxGeometry y="82" width="195" height="26" as="geometry"/>
        </mxCell>
        <mxCell id="IQ13Ngc54RjAF5gL2J---356" value="FK" style="shape=partialRectangle;top=0;left=0;bottom=0;fillColor=none;align=left;verticalAlign=top;spacingLeft=4;spacingRight=4;overflow=hidden;rotatable=0;points=[];portConstraint=eastwest;part=1;fontSize=12;" parent="IQ13Ngc54RjAF5gL2J---355" vertex="1" connectable="0">
          <mxGeometry width="30" height="26" as="geometry"/>
        </mxCell>
        <mxCell id="IQ13Ngc54RjAF5gL2J---309" value="Lesgever" style="swimlane;fontStyle=0;childLayout=stackLayout;horizontal=1;startSize=26;fillColor=#e0e0e0;horizontalStack=0;resizeParent=1;resizeParentMax=0;resizeLast=0;collapsible=1;marginBottom=0;swimlaneFillColor=#ffffff;align=center;fontSize=14;" parent="1" vertex="1">
          <mxGeometry x="510" y="1480" width="185" height="86" as="geometry"/>
        </mxCell>
        <mxCell id="IQ13Ngc54RjAF5gL2J---310" value="Id int" style="shape=partialRectangle;top=0;left=0;right=0;bottom=1;align=left;verticalAlign=middle;fillColor=none;spacingLeft=34;spacingRight=4;overflow=hidden;rotatable=0;points=[[0,0.5],[1,0.5]];portConstraint=eastwest;dropTarget=0;fontStyle=5;fontSize=12;" parent="IQ13Ngc54RjAF5gL2J---309" vertex="1">
          <mxGeometry y="26" width="185" height="30" as="geometry"/>
        </mxCell>
        <mxCell id="IQ13Ngc54RjAF5gL2J---311" value="PK" style="shape=partialRectangle;top=0;left=0;bottom=0;fillColor=none;align=left;verticalAlign=middle;spacingLeft=4;spacingRight=4;overflow=hidden;rotatable=0;points=[];portConstraint=eastwest;part=1;fontSize=12;" parent="IQ13Ngc54RjAF5gL2J---310" vertex="1" connectable="0">
          <mxGeometry width="30" height="30" as="geometry"/>
        </mxCell>
        <mxCell id="IQ13Ngc54RjAF5gL2J---312" value="" style="shape=partialRectangle;top=0;left=0;right=0;bottom=1;align=left;verticalAlign=middle;fillColor=none;spacingLeft=34;spacingRight=4;overflow=hidden;rotatable=0;points=[[0,0.5],[1,0.5]];portConstraint=eastwest;dropTarget=0;fontStyle=2;fontSize=12;" parent="IQ13Ngc54RjAF5gL2J---309" vertex="1">
          <mxGeometry y="56" width="185" height="30" as="geometry"/>
        </mxCell>
        <mxCell id="IQ13Ngc54RjAF5gL2J---313" value="" style="shape=partialRectangle;top=0;left=0;bottom=0;fillColor=none;align=left;verticalAlign=middle;spacingLeft=4;spacingRight=4;overflow=hidden;rotatable=0;points=[];portConstraint=eastwest;part=1;fontSize=12;" parent="IQ13Ngc54RjAF5gL2J---312" vertex="1" connectable="0">
          <mxGeometry width="30" height="30" as="geometry"/>
        </mxCell>
        <mxCell id="IQ13Ngc54RjAF5gL2J---316" value="Vak" style="swimlane;fontStyle=0;childLayout=stackLayout;horizontal=1;startSize=26;fillColor=#e0e0e0;horizontalStack=0;resizeParent=1;resizeParentMax=0;resizeLast=0;collapsible=1;marginBottom=0;swimlaneFillColor=#ffffff;align=center;fontSize=14;" parent="1" vertex="1">
          <mxGeometry x="245" y="1480" width="180" height="86" as="geometry"/>
        </mxCell>
        <mxCell id="IQ13Ngc54RjAF5gL2J---317" value="Id int" style="shape=partialRectangle;top=0;left=0;right=0;bottom=1;align=left;verticalAlign=middle;fillColor=none;spacingLeft=34;spacingRight=4;overflow=hidden;rotatable=0;points=[[0,0.5],[1,0.5]];portConstraint=eastwest;dropTarget=0;fontStyle=5;fontSize=12;" parent="IQ13Ngc54RjAF5gL2J---316" vertex="1">
          <mxGeometry y="26" width="180" height="30" as="geometry"/>
        </mxCell>
        <mxCell id="IQ13Ngc54RjAF5gL2J---318" value="PK" style="shape=partialRectangle;top=0;left=0;bottom=0;fillColor=none;align=left;verticalAlign=middle;spacingLeft=4;spacingRight=4;overflow=hidden;rotatable=0;points=[];portConstraint=eastwest;part=1;fontSize=12;" parent="IQ13Ngc54RjAF5gL2J---317" vertex="1" connectable="0">
          <mxGeometry width="30" height="30" as="geometry"/>
        </mxCell>
        <mxCell id="IQ13Ngc54RjAF5gL2J---319" value="" style="shape=partialRectangle;top=0;left=0;right=0;bottom=1;align=left;verticalAlign=middle;fillColor=none;spacingLeft=34;spacingRight=4;overflow=hidden;rotatable=0;points=[[0,0.5],[1,0.5]];portConstraint=eastwest;dropTarget=0;fontStyle=2;fontSize=12;" parent="IQ13Ngc54RjAF5gL2J---316" vertex="1">
          <mxGeometry y="56" width="180" height="30" as="geometry"/>
        </mxCell>
        <mxCell id="IQ13Ngc54RjAF5gL2J---320" value="" style="shape=partialRectangle;top=0;left=0;bottom=0;fillColor=none;align=left;verticalAlign=middle;spacingLeft=4;spacingRight=4;overflow=hidden;rotatable=0;points=[];portConstraint=eastwest;part=1;fontSize=12;" parent="IQ13Ngc54RjAF5gL2J---319" vertex="1" connectable="0">
          <mxGeometry width="30" height="30" as="geometry"/>
        </mxCell>
        <mxCell id="IQ13Ngc54RjAF5gL2J---335" value="" style="edgeStyle=orthogonalEdgeStyle;rounded=0;orthogonalLoop=1;jettySize=auto;html=1;dashed=1;startArrow=ERzeroToMany;startFill=1;endArrow=ERone;endFill=0;exitX=1;exitY=0.5;exitDx=0;exitDy=0;" parent="1" source="IQ13Ngc54RjAF5gL2J---333" target="IQ13Ngc54RjAF5gL2J---303" edge="1">
          <mxGeometry relative="1" as="geometry">
            <Array as="points">
              <mxPoint x="440" y="1445"/>
              <mxPoint x="440" y="1391"/>
            </Array>
          </mxGeometry>
        </mxCell>
        <mxCell id="IQ13Ngc54RjAF5gL2J---336" value="" style="edgeStyle=orthogonalEdgeStyle;rounded=0;orthogonalLoop=1;jettySize=auto;html=1;dashed=1;startArrow=ERzeroToMany;startFill=1;endArrow=ERone;endFill=0;exitX=0;exitY=0.5;exitDx=0;exitDy=0;" parent="1" source="IQ13Ngc54RjAF5gL2J---330" target="IQ13Ngc54RjAF5gL2J---296" edge="1">
          <mxGeometry relative="1" as="geometry"/>
        </mxCell>
        <mxCell id="IQ13Ngc54RjAF5gL2J---327" value="StudentBijles" style="swimlane;fontStyle=0;childLayout=stackLayout;horizontal=1;startSize=26;fillColor=#e0e0e0;horizontalStack=0;resizeParent=1;resizeParentMax=0;resizeLast=0;collapsible=1;marginBottom=0;swimlaneFillColor=#ffffff;align=center;fontSize=14;" parent="1" vertex="1">
          <mxGeometry x="230" y="1350" width="195" height="108" as="geometry"/>
        </mxCell>
        <mxCell id="IQ13Ngc54RjAF5gL2J---328" value="Id int" style="shape=partialRectangle;top=0;left=0;right=0;bottom=1;align=left;verticalAlign=middle;fillColor=none;spacingLeft=34;spacingRight=4;overflow=hidden;rotatable=0;points=[[0,0.5],[1,0.5]];portConstraint=eastwest;dropTarget=0;fontStyle=5;fontSize=12;" parent="IQ13Ngc54RjAF5gL2J---327" vertex="1">
          <mxGeometry y="26" width="195" height="30" as="geometry"/>
        </mxCell>
        <mxCell id="IQ13Ngc54RjAF5gL2J---329" value="PK" style="shape=partialRectangle;top=0;left=0;bottom=0;fillColor=none;align=left;verticalAlign=middle;spacingLeft=4;spacingRight=4;overflow=hidden;rotatable=0;points=[];portConstraint=eastwest;part=1;fontSize=12;" parent="IQ13Ngc54RjAF5gL2J---328" vertex="1" connectable="0">
          <mxGeometry width="30" height="30" as="geometry"/>
        </mxCell>
        <mxCell id="IQ13Ngc54RjAF5gL2J---330" value="StudentId int" style="shape=partialRectangle;top=0;left=0;right=0;bottom=0;align=left;verticalAlign=top;fillColor=none;spacingLeft=34;spacingRight=4;overflow=hidden;rotatable=0;points=[[0,0.5],[1,0.5]];portConstraint=eastwest;dropTarget=0;fontSize=12;fontStyle=2" parent="IQ13Ngc54RjAF5gL2J---327" vertex="1">
          <mxGeometry y="56" width="195" height="26" as="geometry"/>
        </mxCell>
        <mxCell id="IQ13Ngc54RjAF5gL2J---331" value="FK" style="shape=partialRectangle;top=0;left=0;bottom=0;fillColor=none;align=left;verticalAlign=top;spacingLeft=4;spacingRight=4;overflow=hidden;rotatable=0;points=[];portConstraint=eastwest;part=1;fontSize=12;" parent="IQ13Ngc54RjAF5gL2J---330" vertex="1" connectable="0">
          <mxGeometry width="30" height="26" as="geometry"/>
        </mxCell>
        <mxCell id="IQ13Ngc54RjAF5gL2J---333" value="BijlesId int" style="shape=partialRectangle;top=0;left=0;right=0;bottom=0;align=left;verticalAlign=top;fillColor=none;spacingLeft=34;spacingRight=4;overflow=hidden;rotatable=0;points=[[0,0.5],[1,0.5]];portConstraint=eastwest;dropTarget=0;fontSize=12;fontStyle=2" parent="IQ13Ngc54RjAF5gL2J---327" vertex="1">
          <mxGeometry y="82" width="195" height="26" as="geometry"/>
        </mxCell>
        <mxCell id="IQ13Ngc54RjAF5gL2J---334" value="FK" style="shape=partialRectangle;top=0;left=0;bottom=0;fillColor=none;align=left;verticalAlign=top;spacingLeft=4;spacingRight=4;overflow=hidden;rotatable=0;points=[];portConstraint=eastwest;part=1;fontSize=12;" parent="IQ13Ngc54RjAF5gL2J---333" vertex="1" connectable="0">
          <mxGeometry width="30" height="26" as="geometry"/>
        </mxCell>
        <mxCell id="IQ13Ngc54RjAF5gL2J---358" value="&lt;font style=&quot;font-size: 20px&quot;&gt;4.Verkeersongevallen)&lt;br&gt;&lt;/font&gt;" style="text;html=1;align=center;verticalAlign=middle;resizable=0;points=[];autosize=1;" parent="1" vertex="1">
          <mxGeometry x="5" y="1590" width="210" height="20" as="geometry"/>
        </mxCell>
        <mxCell id="IQ13Ngc54RjAF5gL2J---359" value="Personen" style="swimlane;fontStyle=0;childLayout=stackLayout;horizontal=1;startSize=26;fillColor=#e0e0e0;horizontalStack=0;resizeParent=1;resizeParentMax=0;resizeLast=0;collapsible=1;marginBottom=0;swimlaneFillColor=#ffffff;align=center;fontSize=14;" parent="1" vertex="1">
          <mxGeometry x="5" y="1633" width="180" height="238" as="geometry">
            <mxRectangle x="20" y="20" width="70" height="26" as="alternateBounds"/>
          </mxGeometry>
        </mxCell>
        <mxCell id="IQ13Ngc54RjAF5gL2J---360" value="Id int" style="shape=partialRectangle;top=0;left=0;right=0;bottom=1;align=left;verticalAlign=middle;fillColor=none;spacingLeft=34;spacingRight=4;overflow=hidden;rotatable=0;points=[[0,0.5],[1,0.5]];portConstraint=eastwest;dropTarget=0;fontStyle=5;fontSize=12;" parent="IQ13Ngc54RjAF5gL2J---359" vertex="1">
          <mxGeometry y="26" width="180" height="30" as="geometry"/>
        </mxCell>
        <mxCell id="IQ13Ngc54RjAF5gL2J---361" value="PK" style="shape=partialRectangle;top=0;left=0;bottom=0;fillColor=none;align=left;verticalAlign=middle;spacingLeft=4;spacingRight=4;overflow=hidden;rotatable=0;points=[];portConstraint=eastwest;part=1;fontSize=12;" parent="IQ13Ngc54RjAF5gL2J---360" vertex="1" connectable="0">
          <mxGeometry width="30" height="30" as="geometry"/>
        </mxCell>
        <mxCell id="IQ13Ngc54RjAF5gL2J---362" value="Voornaam varchar(255)Â " style="shape=partialRectangle;top=0;left=0;right=0;bottom=0;align=left;verticalAlign=top;fillColor=none;spacingLeft=34;spacingRight=4;overflow=hidden;rotatable=0;points=[[0,0.5],[1,0.5]];portConstraint=eastwest;dropTarget=0;fontSize=12;" parent="IQ13Ngc54RjAF5gL2J---359" vertex="1">
          <mxGeometry y="56" width="180" height="26" as="geometry"/>
        </mxCell>
        <mxCell id="IQ13Ngc54RjAF5gL2J---363" value="" style="shape=partialRectangle;top=0;left=0;bottom=0;fillColor=none;align=left;verticalAlign=top;spacingLeft=4;spacingRight=4;overflow=hidden;rotatable=0;points=[];portConstraint=eastwest;part=1;fontSize=12;" parent="IQ13Ngc54RjAF5gL2J---362" vertex="1" connectable="0">
          <mxGeometry width="30" height="26" as="geometry"/>
        </mxCell>
        <mxCell id="IQ13Ngc54RjAF5gL2J---364" value="Achternaam varchar(255)" style="shape=partialRectangle;top=0;left=0;right=0;bottom=0;align=left;verticalAlign=top;fillColor=none;spacingLeft=34;spacingRight=4;overflow=hidden;rotatable=0;points=[[0,0.5],[1,0.5]];portConstraint=eastwest;dropTarget=0;fontSize=12;" parent="IQ13Ngc54RjAF5gL2J---359" vertex="1">
          <mxGeometry y="82" width="180" height="26" as="geometry"/>
        </mxCell>
        <mxCell id="IQ13Ngc54RjAF5gL2J---365" value="" style="shape=partialRectangle;top=0;left=0;bottom=0;fillColor=none;align=left;verticalAlign=top;spacingLeft=4;spacingRight=4;overflow=hidden;rotatable=0;points=[];portConstraint=eastwest;part=1;fontSize=12;" parent="IQ13Ngc54RjAF5gL2J---364" vertex="1" connectable="0">
          <mxGeometry width="30" height="26" as="geometry"/>
        </mxCell>
        <mxCell id="IQ13Ngc54RjAF5gL2J---366" value="Huisnr varchar(255)" style="shape=partialRectangle;top=0;left=0;right=0;bottom=0;align=left;verticalAlign=top;fillColor=none;spacingLeft=34;spacingRight=4;overflow=hidden;rotatable=0;points=[[0,0.5],[1,0.5]];portConstraint=eastwest;dropTarget=0;fontSize=12;" parent="IQ13Ngc54RjAF5gL2J---359" vertex="1">
          <mxGeometry y="108" width="180" height="26" as="geometry"/>
        </mxCell>
        <mxCell id="IQ13Ngc54RjAF5gL2J---367" value="" style="shape=partialRectangle;top=0;left=0;bottom=0;fillColor=none;align=left;verticalAlign=top;spacingLeft=4;spacingRight=4;overflow=hidden;rotatable=0;points=[];portConstraint=eastwest;part=1;fontSize=12;" parent="IQ13Ngc54RjAF5gL2J---366" vertex="1" connectable="0">
          <mxGeometry width="30" height="26" as="geometry"/>
        </mxCell>
        <mxCell id="IQ13Ngc54RjAF5gL2J---368" value="Straat varchar(255)" style="shape=partialRectangle;top=0;left=0;right=0;bottom=0;align=left;verticalAlign=top;fillColor=none;spacingLeft=34;spacingRight=4;overflow=hidden;rotatable=0;points=[[0,0.5],[1,0.5]];portConstraint=eastwest;dropTarget=0;fontSize=12;fontStyle=0" parent="IQ13Ngc54RjAF5gL2J---359" vertex="1">
          <mxGeometry y="134" width="180" height="26" as="geometry"/>
        </mxCell>
        <mxCell id="IQ13Ngc54RjAF5gL2J---369" value="" style="shape=partialRectangle;top=0;left=0;bottom=0;fillColor=none;align=left;verticalAlign=top;spacingLeft=4;spacingRight=4;overflow=hidden;rotatable=0;points=[];portConstraint=eastwest;part=1;fontSize=12;fontStyle=0" parent="IQ13Ngc54RjAF5gL2J---368" vertex="1" connectable="0">
          <mxGeometry width="30" height="26" as="geometry"/>
        </mxCell>
        <mxCell id="IQ13Ngc54RjAF5gL2J---370" value="Gemeente varchar(255)" style="shape=partialRectangle;top=0;left=0;right=0;bottom=0;align=left;verticalAlign=top;fillColor=none;spacingLeft=34;spacingRight=4;overflow=hidden;rotatable=0;points=[[0,0.5],[1,0.5]];portConstraint=eastwest;dropTarget=0;fontSize=12;fontStyle=0" parent="IQ13Ngc54RjAF5gL2J---359" vertex="1">
          <mxGeometry y="160" width="180" height="26" as="geometry"/>
        </mxCell>
        <mxCell id="IQ13Ngc54RjAF5gL2J---371" value="" style="shape=partialRectangle;top=0;left=0;bottom=0;fillColor=none;align=left;verticalAlign=top;spacingLeft=4;spacingRight=4;overflow=hidden;rotatable=0;points=[];portConstraint=eastwest;part=1;fontSize=12;fontStyle=0" parent="IQ13Ngc54RjAF5gL2J---370" vertex="1" connectable="0">
          <mxGeometry width="30" height="26" as="geometry"/>
        </mxCell>
        <mxCell id="IQ13Ngc54RjAF5gL2J---372" value="Postcode intÂ " style="shape=partialRectangle;top=0;left=0;right=0;bottom=0;align=left;verticalAlign=top;fillColor=none;spacingLeft=34;spacingRight=4;overflow=hidden;rotatable=0;points=[[0,0.5],[1,0.5]];portConstraint=eastwest;dropTarget=0;fontSize=12;fontStyle=0" parent="IQ13Ngc54RjAF5gL2J---359" vertex="1">
          <mxGeometry y="186" width="180" height="26" as="geometry"/>
        </mxCell>
        <mxCell id="IQ13Ngc54RjAF5gL2J---373" value="" style="shape=partialRectangle;top=0;left=0;bottom=0;fillColor=none;align=left;verticalAlign=top;spacingLeft=4;spacingRight=4;overflow=hidden;rotatable=0;points=[];portConstraint=eastwest;part=1;fontSize=12;fontStyle=0" parent="IQ13Ngc54RjAF5gL2J---372" vertex="1" connectable="0">
          <mxGeometry width="30" height="26" as="geometry"/>
        </mxCell>
        <mxCell id="IQ13Ngc54RjAF5gL2J---374" value="Land varchar(255)" style="shape=partialRectangle;top=0;left=0;right=0;bottom=0;align=left;verticalAlign=top;fillColor=none;spacingLeft=34;spacingRight=4;overflow=hidden;rotatable=0;points=[[0,0.5],[1,0.5]];portConstraint=eastwest;dropTarget=0;fontSize=12;fontStyle=0" parent="IQ13Ngc54RjAF5gL2J---359" vertex="1">
          <mxGeometry y="212" width="180" height="26" as="geometry"/>
        </mxCell>
        <mxCell id="IQ13Ngc54RjAF5gL2J---375" value="" style="shape=partialRectangle;top=0;left=0;bottom=0;fillColor=none;align=left;verticalAlign=top;spacingLeft=4;spacingRight=4;overflow=hidden;rotatable=0;points=[];portConstraint=eastwest;part=1;fontSize=12;fontStyle=0" parent="IQ13Ngc54RjAF5gL2J---374" vertex="1" connectable="0">
          <mxGeometry width="30" height="26" as="geometry"/>
        </mxCell>
        <mxCell id="IQ13Ngc54RjAF5gL2J---376" value="Auto" style="swimlane;fontStyle=0;childLayout=stackLayout;horizontal=1;startSize=26;fillColor=#e0e0e0;horizontalStack=0;resizeParent=1;resizeParentMax=0;resizeLast=0;collapsible=1;marginBottom=0;swimlaneFillColor=#ffffff;align=center;fontSize=14;" parent="1" vertex="1">
          <mxGeometry x="550" y="1633" width="190" height="214" as="geometry">
            <mxRectangle x="20" y="20" width="70" height="26" as="alternateBounds"/>
          </mxGeometry>
        </mxCell>
        <mxCell id="IQ13Ngc54RjAF5gL2J---377" value="Id int" style="shape=partialRectangle;top=0;left=0;right=0;bottom=1;align=left;verticalAlign=middle;fillColor=none;spacingLeft=34;spacingRight=4;overflow=hidden;rotatable=0;points=[[0,0.5],[1,0.5]];portConstraint=eastwest;dropTarget=0;fontStyle=5;fontSize=12;" parent="IQ13Ngc54RjAF5gL2J---376" vertex="1">
          <mxGeometry y="26" width="190" height="30" as="geometry"/>
        </mxCell>
        <mxCell id="IQ13Ngc54RjAF5gL2J---378" value="PK" style="shape=partialRectangle;top=0;left=0;bottom=0;fillColor=none;align=left;verticalAlign=middle;spacingLeft=4;spacingRight=4;overflow=hidden;rotatable=0;points=[];portConstraint=eastwest;part=1;fontSize=12;" parent="IQ13Ngc54RjAF5gL2J---377" vertex="1" connectable="0">
          <mxGeometry width="30" height="30" as="geometry"/>
        </mxCell>
        <mxCell id="IQ13Ngc54RjAF5gL2J---379" value="Merk varchar(255)" style="shape=partialRectangle;top=0;left=0;right=0;bottom=0;align=left;verticalAlign=top;fillColor=none;spacingLeft=34;spacingRight=4;overflow=hidden;rotatable=0;points=[[0,0.5],[1,0.5]];portConstraint=eastwest;dropTarget=0;fontSize=12;" parent="IQ13Ngc54RjAF5gL2J---376" vertex="1">
          <mxGeometry y="56" width="190" height="26" as="geometry"/>
        </mxCell>
        <mxCell id="IQ13Ngc54RjAF5gL2J---380" value="" style="shape=partialRectangle;top=0;left=0;bottom=0;fillColor=none;align=left;verticalAlign=top;spacingLeft=4;spacingRight=4;overflow=hidden;rotatable=0;points=[];portConstraint=eastwest;part=1;fontSize=12;" parent="IQ13Ngc54RjAF5gL2J---379" vertex="1" connectable="0">
          <mxGeometry width="30" height="26" as="geometry"/>
        </mxCell>
        <mxCell id="IQ13Ngc54RjAF5gL2J---381" value="ModelÂ varchar(255)" style="shape=partialRectangle;top=0;left=0;right=0;bottom=0;align=left;verticalAlign=top;fillColor=none;spacingLeft=34;spacingRight=4;overflow=hidden;rotatable=0;points=[[0,0.5],[1,0.5]];portConstraint=eastwest;dropTarget=0;fontSize=12;" parent="IQ13Ngc54RjAF5gL2J---376" vertex="1">
          <mxGeometry y="82" width="190" height="28" as="geometry"/>
        </mxCell>
        <mxCell id="IQ13Ngc54RjAF5gL2J---382" value="" style="shape=partialRectangle;top=0;left=0;bottom=0;fillColor=none;align=left;verticalAlign=top;spacingLeft=4;spacingRight=4;overflow=hidden;rotatable=0;points=[];portConstraint=eastwest;part=1;fontSize=12;" parent="IQ13Ngc54RjAF5gL2J---381" vertex="1" connectable="0">
          <mxGeometry width="30" height="28" as="geometry"/>
        </mxCell>
        <mxCell id="IQ13Ngc54RjAF5gL2J---383" value="Bouwjaar int" style="shape=partialRectangle;top=0;left=0;right=0;bottom=0;align=left;verticalAlign=top;fillColor=none;spacingLeft=34;spacingRight=4;overflow=hidden;rotatable=0;points=[[0,0.5],[1,0.5]];portConstraint=eastwest;dropTarget=0;fontSize=12;" parent="IQ13Ngc54RjAF5gL2J---376" vertex="1">
          <mxGeometry y="110" width="190" height="26" as="geometry"/>
        </mxCell>
        <mxCell id="IQ13Ngc54RjAF5gL2J---384" value="" style="shape=partialRectangle;top=0;left=0;bottom=0;fillColor=none;align=left;verticalAlign=top;spacingLeft=4;spacingRight=4;overflow=hidden;rotatable=0;points=[];portConstraint=eastwest;part=1;fontSize=12;" parent="IQ13Ngc54RjAF5gL2J---383" vertex="1" connectable="0">
          <mxGeometry width="30" height="26" as="geometry"/>
        </mxCell>
        <mxCell id="IQ13Ngc54RjAF5gL2J---385" value="Nummerplaat varchar(255)" style="shape=partialRectangle;top=0;left=0;right=0;bottom=0;align=left;verticalAlign=top;fillColor=none;spacingLeft=34;spacingRight=4;overflow=hidden;rotatable=0;points=[[0,0.5],[1,0.5]];portConstraint=eastwest;dropTarget=0;fontSize=12;fontStyle=0" parent="IQ13Ngc54RjAF5gL2J---376" vertex="1">
          <mxGeometry y="136" width="190" height="26" as="geometry"/>
        </mxCell>
        <mxCell id="IQ13Ngc54RjAF5gL2J---386" value="" style="shape=partialRectangle;top=0;left=0;bottom=0;fillColor=none;align=left;verticalAlign=top;spacingLeft=4;spacingRight=4;overflow=hidden;rotatable=0;points=[];portConstraint=eastwest;part=1;fontSize=12;fontStyle=0" parent="IQ13Ngc54RjAF5gL2J---385" vertex="1" connectable="0">
          <mxGeometry width="30" height="26" as="geometry"/>
        </mxCell>
        <mxCell id="IQ13Ngc54RjAF5gL2J---437" value="Person" style="shape=partialRectangle;top=0;left=0;right=0;bottom=0;align=left;verticalAlign=top;fillColor=none;spacingLeft=34;spacingRight=4;overflow=hidden;rotatable=0;points=[[0,0.5],[1,0.5]];portConstraint=eastwest;dropTarget=0;fontSize=12;fontStyle=0" parent="IQ13Ngc54RjAF5gL2J---376" vertex="1">
          <mxGeometry y="162" width="190" height="26" as="geometry"/>
        </mxCell>
        <mxCell id="IQ13Ngc54RjAF5gL2J---438" value="" style="shape=partialRectangle;top=0;left=0;bottom=0;fillColor=none;align=left;verticalAlign=top;spacingLeft=4;spacingRight=4;overflow=hidden;rotatable=0;points=[];portConstraint=eastwest;part=1;fontSize=12;fontStyle=0" parent="IQ13Ngc54RjAF5gL2J---437" vertex="1" connectable="0">
          <mxGeometry width="30" height="26" as="geometry"/>
        </mxCell>
        <mxCell id="IQ13Ngc54RjAF5gL2J---439" value="Nummerplaat varchar(255)" style="shape=partialRectangle;top=0;left=0;right=0;bottom=0;align=left;verticalAlign=top;fillColor=none;spacingLeft=34;spacingRight=4;overflow=hidden;rotatable=0;points=[[0,0.5],[1,0.5]];portConstraint=eastwest;dropTarget=0;fontSize=12;fontStyle=0" parent="IQ13Ngc54RjAF5gL2J---376" vertex="1">
          <mxGeometry y="188" width="190" height="26" as="geometry"/>
        </mxCell>
        <mxCell id="IQ13Ngc54RjAF5gL2J---440" value="" style="shape=partialRectangle;top=0;left=0;bottom=0;fillColor=none;align=left;verticalAlign=top;spacingLeft=4;spacingRight=4;overflow=hidden;rotatable=0;points=[];portConstraint=eastwest;part=1;fontSize=12;fontStyle=0" parent="IQ13Ngc54RjAF5gL2J---439" vertex="1" connectable="0">
          <mxGeometry width="30" height="26" as="geometry"/>
        </mxCell>
        <mxCell id="uiwobJxm1xoRZOk2os2g-26" value="" style="edgeStyle=orthogonalEdgeStyle;rounded=0;orthogonalLoop=1;jettySize=auto;html=1;startArrow=ERone;startFill=0;endArrow=ERzeroToMany;endFill=1;entryX=0;entryY=0.5;entryDx=0;entryDy=0;" parent="1" source="IQ13Ngc54RjAF5gL2J---412" target="uiwobJxm1xoRZOk2os2g-1" edge="1">
          <mxGeometry relative="1" as="geometry">
            <mxPoint x="250" y="1840" as="targetPoint"/>
            <Array as="points">
              <mxPoint x="200" y="1950"/>
              <mxPoint x="200" y="1841"/>
            </Array>
          </mxGeometry>
        </mxCell>
        <mxCell id="IQ13Ngc54RjAF5gL2J---412" value="Ongeval" style="swimlane;fontStyle=0;childLayout=stackLayout;horizontal=1;startSize=26;fillColor=#e0e0e0;horizontalStack=0;resizeParent=1;resizeParentMax=0;resizeLast=0;collapsible=1;marginBottom=0;swimlaneFillColor=#ffffff;align=center;fontSize=14;" parent="1" vertex="1">
          <mxGeometry x="255" y="1910" width="180" height="56" as="geometry">
            <mxRectangle x="20" y="20" width="70" height="26" as="alternateBounds"/>
          </mxGeometry>
        </mxCell>
        <mxCell id="uiwobJxm1xoRZOk2os2g-21" value="Id int" style="shape=partialRectangle;top=0;left=0;right=0;bottom=1;align=left;verticalAlign=middle;fillColor=none;spacingLeft=34;spacingRight=4;overflow=hidden;rotatable=0;points=[[0,0.5],[1,0.5]];portConstraint=eastwest;dropTarget=0;fontStyle=5;fontSize=12;" parent="IQ13Ngc54RjAF5gL2J---412" vertex="1">
          <mxGeometry y="26" width="180" height="30" as="geometry"/>
        </mxCell>
        <mxCell id="uiwobJxm1xoRZOk2os2g-22" value="PK" style="shape=partialRectangle;top=0;left=0;bottom=0;fillColor=none;align=left;verticalAlign=middle;spacingLeft=4;spacingRight=4;overflow=hidden;rotatable=0;points=[];portConstraint=eastwest;part=1;fontSize=12;" parent="uiwobJxm1xoRZOk2os2g-21" vertex="1" connectable="0">
          <mxGeometry width="30" height="30" as="geometry"/>
        </mxCell>
        <mxCell id="MRnjAUPKyS1Pil_bxKCA-1" value="OngevalPersoon" style="swimlane;fontStyle=0;childLayout=stackLayout;horizontal=1;startSize=26;fillColor=#e0e0e0;horizontalStack=0;resizeParent=1;resizeParentMax=0;resizeLast=0;collapsible=1;marginBottom=0;swimlaneFillColor=#ffffff;align=center;fontSize=14;" parent="1" vertex="1">
          <mxGeometry x="255" y="1770" width="180" height="116" as="geometry">
            <mxRectangle x="20" y="20" width="70" height="26" as="alternateBounds"/>
          </mxGeometry>
        </mxCell>
        <mxCell id="MRnjAUPKyS1Pil_bxKCA-2" value="Id int" style="shape=partialRectangle;top=0;left=0;right=0;bottom=1;align=left;verticalAlign=middle;fillColor=none;spacingLeft=34;spacingRight=4;overflow=hidden;rotatable=0;points=[[0,0.5],[1,0.5]];portConstraint=eastwest;dropTarget=0;fontStyle=5;fontSize=12;" parent="MRnjAUPKyS1Pil_bxKCA-1" vertex="1">
          <mxGeometry y="26" width="180" height="30" as="geometry"/>
        </mxCell>
        <mxCell id="MRnjAUPKyS1Pil_bxKCA-3" value="PK" style="shape=partialRectangle;top=0;left=0;bottom=0;fillColor=none;align=left;verticalAlign=middle;spacingLeft=4;spacingRight=4;overflow=hidden;rotatable=0;points=[];portConstraint=eastwest;part=1;fontSize=12;" parent="MRnjAUPKyS1Pil_bxKCA-2" vertex="1" connectable="0">
          <mxGeometry width="30" height="30" as="geometry"/>
        </mxCell>
        <mxCell id="uiwobJxm1xoRZOk2os2g-1" value="OngevalId int" style="shape=partialRectangle;top=0;left=0;right=0;bottom=1;align=left;verticalAlign=middle;fillColor=none;spacingLeft=34;spacingRight=4;overflow=hidden;rotatable=0;points=[[0,0.5],[1,0.5]];portConstraint=eastwest;dropTarget=0;fontStyle=0;fontSize=12;" parent="MRnjAUPKyS1Pil_bxKCA-1" vertex="1">
          <mxGeometry y="56" width="180" height="30" as="geometry"/>
        </mxCell>
        <mxCell id="uiwobJxm1xoRZOk2os2g-2" value="FK" style="shape=partialRectangle;top=0;left=0;bottom=0;fillColor=none;align=left;verticalAlign=middle;spacingLeft=4;spacingRight=4;overflow=hidden;rotatable=0;points=[];portConstraint=eastwest;part=1;fontSize=12;" parent="uiwobJxm1xoRZOk2os2g-1" vertex="1" connectable="0">
          <mxGeometry width="30" height="30" as="geometry"/>
        </mxCell>
        <mxCell id="uiwobJxm1xoRZOk2os2g-8" value="PersoonId int" style="shape=partialRectangle;top=0;left=0;right=0;bottom=1;align=left;verticalAlign=middle;fillColor=none;spacingLeft=34;spacingRight=4;overflow=hidden;rotatable=0;points=[[0,0.5],[1,0.5]];portConstraint=eastwest;dropTarget=0;fontStyle=0;fontSize=12;" parent="MRnjAUPKyS1Pil_bxKCA-1" vertex="1">
          <mxGeometry y="86" width="180" height="30" as="geometry"/>
        </mxCell>
        <mxCell id="uiwobJxm1xoRZOk2os2g-9" value="FK" style="shape=partialRectangle;top=0;left=0;bottom=0;fillColor=none;align=left;verticalAlign=middle;spacingLeft=4;spacingRight=4;overflow=hidden;rotatable=0;points=[];portConstraint=eastwest;part=1;fontSize=12;" parent="uiwobJxm1xoRZOk2os2g-8" vertex="1" connectable="0">
          <mxGeometry width="30" height="30" as="geometry"/>
        </mxCell>
        <mxCell id="MRnjAUPKyS1Pil_bxKCA-29" value="" style="edgeStyle=orthogonalEdgeStyle;rounded=0;orthogonalLoop=1;jettySize=auto;html=1;entryX=0;entryY=0.5;entryDx=0;entryDy=0;dashed=1;endArrow=ERone;endFill=0;startArrow=ERzeroToMany;startFill=1;" parent="1" source="MRnjAUPKyS1Pil_bxKCA-4" target="IQ13Ngc54RjAF5gL2J---377" edge="1">
          <mxGeometry relative="1" as="geometry">
            <mxPoint x="515" y="1691" as="targetPoint"/>
            <Array as="points">
              <mxPoint x="515" y="1730"/>
              <mxPoint x="515" y="1674"/>
            </Array>
          </mxGeometry>
        </mxCell>
        <mxCell id="uiwobJxm1xoRZOk2os2g-20" value="" style="edgeStyle=orthogonalEdgeStyle;rounded=0;orthogonalLoop=1;jettySize=auto;html=1;startArrow=ERzeroToMany;startFill=1;endArrow=ERone;endFill=0;entryX=1.006;entryY=0.733;entryDx=0;entryDy=0;exitX=1;exitY=0.5;exitDx=0;exitDy=0;entryPerimeter=0;" parent="1" source="MRnjAUPKyS1Pil_bxKCA-9" target="uiwobJxm1xoRZOk2os2g-21" edge="1">
          <mxGeometry relative="1" as="geometry">
            <mxPoint x="435" y="1981" as="targetPoint"/>
            <Array as="points">
              <mxPoint x="470" y="1704"/>
              <mxPoint x="470" y="1958"/>
            </Array>
          </mxGeometry>
        </mxCell>
        <mxCell id="MRnjAUPKyS1Pil_bxKCA-4" value="OngevalAuto" style="swimlane;fontStyle=0;childLayout=stackLayout;horizontal=1;startSize=26;fillColor=#e0e0e0;horizontalStack=0;resizeParent=1;resizeParentMax=0;resizeLast=0;collapsible=1;marginBottom=0;swimlaneFillColor=#ffffff;align=center;fontSize=14;" parent="1" vertex="1">
          <mxGeometry x="255" y="1633" width="180" height="116" as="geometry">
            <mxRectangle x="20" y="20" width="70" height="26" as="alternateBounds"/>
          </mxGeometry>
        </mxCell>
        <mxCell id="MRnjAUPKyS1Pil_bxKCA-5" value="Id int" style="shape=partialRectangle;top=0;left=0;right=0;bottom=1;align=left;verticalAlign=middle;fillColor=none;spacingLeft=34;spacingRight=4;overflow=hidden;rotatable=0;points=[[0,0.5],[1,0.5]];portConstraint=eastwest;dropTarget=0;fontStyle=5;fontSize=12;" parent="MRnjAUPKyS1Pil_bxKCA-4" vertex="1">
          <mxGeometry y="26" width="180" height="30" as="geometry"/>
        </mxCell>
        <mxCell id="MRnjAUPKyS1Pil_bxKCA-6" value="PK" style="shape=partialRectangle;top=0;left=0;bottom=0;fillColor=none;align=left;verticalAlign=middle;spacingLeft=4;spacingRight=4;overflow=hidden;rotatable=0;points=[];portConstraint=eastwest;part=1;fontSize=12;" parent="MRnjAUPKyS1Pil_bxKCA-5" vertex="1" connectable="0">
          <mxGeometry width="30" height="30" as="geometry"/>
        </mxCell>
        <mxCell id="MRnjAUPKyS1Pil_bxKCA-9" value="OngevalId int" style="shape=partialRectangle;top=0;left=0;right=0;bottom=1;align=left;verticalAlign=middle;fillColor=none;spacingLeft=34;spacingRight=4;overflow=hidden;rotatable=0;points=[[0,0.5],[1,0.5]];portConstraint=eastwest;dropTarget=0;fontStyle=0;fontSize=12;" parent="MRnjAUPKyS1Pil_bxKCA-4" vertex="1">
          <mxGeometry y="56" width="180" height="30" as="geometry"/>
        </mxCell>
        <mxCell id="MRnjAUPKyS1Pil_bxKCA-10" value="FK" style="shape=partialRectangle;top=0;left=0;bottom=0;fillColor=none;align=left;verticalAlign=middle;spacingLeft=4;spacingRight=4;overflow=hidden;rotatable=0;points=[];portConstraint=eastwest;part=1;fontSize=12;" parent="MRnjAUPKyS1Pil_bxKCA-9" vertex="1" connectable="0">
          <mxGeometry width="30" height="30" as="geometry"/>
        </mxCell>
        <mxCell id="MRnjAUPKyS1Pil_bxKCA-16" value="AutoId int" style="shape=partialRectangle;top=0;left=0;right=0;bottom=1;align=left;verticalAlign=middle;fillColor=none;spacingLeft=34;spacingRight=4;overflow=hidden;rotatable=0;points=[[0,0.5],[1,0.5]];portConstraint=eastwest;dropTarget=0;fontStyle=0;fontSize=12;" parent="MRnjAUPKyS1Pil_bxKCA-4" vertex="1">
          <mxGeometry y="86" width="180" height="30" as="geometry"/>
        </mxCell>
        <mxCell id="MRnjAUPKyS1Pil_bxKCA-17" value="FK" style="shape=partialRectangle;top=0;left=0;bottom=0;fillColor=none;align=left;verticalAlign=middle;spacingLeft=4;spacingRight=4;overflow=hidden;rotatable=0;points=[];portConstraint=eastwest;part=1;fontSize=12;" parent="MRnjAUPKyS1Pil_bxKCA-16" vertex="1" connectable="0">
          <mxGeometry width="30" height="30" as="geometry"/>
        </mxCell>
        <mxCell id="uiwobJxm1xoRZOk2os2g-10" value="" style="edgeStyle=orthogonalEdgeStyle;rounded=0;orthogonalLoop=1;jettySize=auto;html=1;entryX=1;entryY=0.5;entryDx=0;entryDy=0;endArrow=ERone;endFill=0;startArrow=ERzeroToMany;startFill=1;" parent="1" source="uiwobJxm1xoRZOk2os2g-8" target="IQ13Ngc54RjAF5gL2J---360" edge="1">
          <mxGeometry relative="1" as="geometry"/>
        </mxCell>
        <mxCell id="A8dW5q5iUG7Via8x0HIp-90" value="" style="edgeStyle=orthogonalEdgeStyle;rounded=0;orthogonalLoop=1;jettySize=auto;html=1;dashed=1;startArrow=ERone;startFill=0;endArrow=ERzeroToMany;endFill=1;exitX=1;exitY=0.5;exitDx=0;exitDy=0;entryX=0;entryY=0.5;entryDx=0;entryDy=0;" parent="1" target="A8dW5q5iUG7Via8x0HIp-31" edge="1">
          <mxGeometry relative="1" as="geometry">
            <mxPoint x="245" y="2065" as="sourcePoint"/>
            <mxPoint x="320" y="2161" as="targetPoint"/>
            <Array as="points">
              <mxPoint x="260" y="2039"/>
              <mxPoint x="260" y="2233"/>
            </Array>
          </mxGeometry>
        </mxCell>
        <mxCell id="A8dW5q5iUG7Via8x0HIp-176" value="" style="edgeStyle=orthogonalEdgeStyle;rounded=0;orthogonalLoop=1;jettySize=auto;html=1;dashed=1;startArrow=ERone;startFill=0;endArrow=ERzeroToMany;endFill=1;entryX=1;entryY=0.5;entryDx=0;entryDy=0;exitX=0;exitY=0.5;exitDx=0;exitDy=0;" parent="1" source="A8dW5q5iUG7Via8x0HIp-147" target="A8dW5q5iUG7Via8x0HIp-97" edge="1">
          <mxGeometry relative="1" as="geometry">
            <mxPoint x="-55" y="2174" as="targetPoint"/>
            <Array as="points">
              <mxPoint x="10" y="2039"/>
              <mxPoint x="10" y="2420"/>
              <mxPoint x="890" y="2420"/>
              <mxPoint x="890" y="2089"/>
            </Array>
          </mxGeometry>
        </mxCell>
        <mxCell id="NEOsGIZV13K515iA0hNl-4" value="Persoon" style="swimlane;fontStyle=0;childLayout=stackLayout;horizontal=1;startSize=26;fillColor=#e0e0e0;horizontalStack=0;resizeParent=1;resizeParentMax=0;resizeLast=0;collapsible=1;marginBottom=0;swimlaneFillColor=#ffffff;align=center;fontSize=14;" parent="1" vertex="1">
          <mxGeometry x="25" y="2000" width="220" height="348" as="geometry"/>
        </mxCell>
        <mxCell id="A8dW5q5iUG7Via8x0HIp-147" value="Id int" style="shape=partialRectangle;top=0;left=0;right=0;bottom=1;align=left;verticalAlign=middle;fillColor=none;spacingLeft=34;spacingRight=4;overflow=hidden;rotatable=0;points=[[0,0.5],[1,0.5]];portConstraint=eastwest;dropTarget=0;fontStyle=5;fontSize=12;" parent="NEOsGIZV13K515iA0hNl-4" vertex="1">
          <mxGeometry y="26" width="220" height="26" as="geometry"/>
        </mxCell>
        <mxCell id="A8dW5q5iUG7Via8x0HIp-148" value="PK" style="shape=partialRectangle;top=0;left=0;bottom=0;fillColor=none;align=left;verticalAlign=middle;spacingLeft=4;spacingRight=4;overflow=hidden;rotatable=0;points=[];portConstraint=eastwest;part=1;fontSize=12;" parent="A8dW5q5iUG7Via8x0HIp-147" vertex="1" connectable="0">
          <mxGeometry width="28.125" height="26" as="geometry"/>
        </mxCell>
        <mxCell id="NEOsGIZV13K515iA0hNl-7" value="Voornaam varchar (255)" style="shape=partialRectangle;top=0;left=0;right=0;bottom=0;align=left;verticalAlign=top;fillColor=none;spacingLeft=34;spacingRight=4;overflow=hidden;rotatable=0;points=[[0,0.5],[1,0.5]];portConstraint=eastwest;dropTarget=0;fontSize=12;" parent="NEOsGIZV13K515iA0hNl-4" vertex="1">
          <mxGeometry y="52" width="220" height="26" as="geometry"/>
        </mxCell>
        <mxCell id="NEOsGIZV13K515iA0hNl-8" value="" style="shape=partialRectangle;top=0;left=0;bottom=0;fillColor=none;align=left;verticalAlign=top;spacingLeft=4;spacingRight=4;overflow=hidden;rotatable=0;points=[];portConstraint=eastwest;part=1;fontSize=12;" parent="NEOsGIZV13K515iA0hNl-7" vertex="1" connectable="0">
          <mxGeometry width="30" height="26" as="geometry"/>
        </mxCell>
        <mxCell id="NEOsGIZV13K515iA0hNl-9" value="Naam varchat (255)" style="shape=partialRectangle;top=0;left=0;right=0;bottom=0;align=left;verticalAlign=top;fillColor=none;spacingLeft=34;spacingRight=4;overflow=hidden;rotatable=0;points=[[0,0.5],[1,0.5]];portConstraint=eastwest;dropTarget=0;fontSize=12;" parent="NEOsGIZV13K515iA0hNl-4" vertex="1">
          <mxGeometry y="78" width="220" height="26" as="geometry"/>
        </mxCell>
        <mxCell id="NEOsGIZV13K515iA0hNl-10" value="" style="shape=partialRectangle;top=0;left=0;bottom=0;fillColor=none;align=left;verticalAlign=top;spacingLeft=4;spacingRight=4;overflow=hidden;rotatable=0;points=[];portConstraint=eastwest;part=1;fontSize=12;" parent="NEOsGIZV13K515iA0hNl-9" vertex="1" connectable="0">
          <mxGeometry width="30" height="26" as="geometry"/>
        </mxCell>
        <mxCell id="NEOsGIZV13K515iA0hNl-11" value="Huisnr varchar (255)" style="shape=partialRectangle;top=0;left=0;right=0;bottom=0;align=left;verticalAlign=top;fillColor=none;spacingLeft=34;spacingRight=4;overflow=hidden;rotatable=0;points=[[0,0.5],[1,0.5]];portConstraint=eastwest;dropTarget=0;fontSize=12;" parent="NEOsGIZV13K515iA0hNl-4" vertex="1">
          <mxGeometry y="104" width="220" height="26" as="geometry"/>
        </mxCell>
        <mxCell id="NEOsGIZV13K515iA0hNl-12" value="" style="shape=partialRectangle;top=0;left=0;bottom=0;fillColor=none;align=left;verticalAlign=top;spacingLeft=4;spacingRight=4;overflow=hidden;rotatable=0;points=[];portConstraint=eastwest;part=1;fontSize=12;" parent="NEOsGIZV13K515iA0hNl-11" vertex="1" connectable="0">
          <mxGeometry width="30" height="26" as="geometry"/>
        </mxCell>
        <mxCell id="A8dW5q5iUG7Via8x0HIp-145" value="Straat varchar (255)" style="shape=partialRectangle;top=0;left=0;right=0;bottom=0;align=left;verticalAlign=top;fillColor=none;spacingLeft=34;spacingRight=4;overflow=hidden;rotatable=0;points=[[0,0.5],[1,0.5]];portConstraint=eastwest;dropTarget=0;fontSize=12;" parent="NEOsGIZV13K515iA0hNl-4" vertex="1">
          <mxGeometry y="130" width="220" height="26" as="geometry"/>
        </mxCell>
        <mxCell id="A8dW5q5iUG7Via8x0HIp-146" value="" style="shape=partialRectangle;top=0;left=0;bottom=0;fillColor=none;align=left;verticalAlign=top;spacingLeft=4;spacingRight=4;overflow=hidden;rotatable=0;points=[];portConstraint=eastwest;part=1;fontSize=12;" parent="A8dW5q5iUG7Via8x0HIp-145" vertex="1" connectable="0">
          <mxGeometry width="30" height="26" as="geometry"/>
        </mxCell>
        <mxCell id="NEOsGIZV13K515iA0hNl-15" value="Straat varchar (255)" style="shape=partialRectangle;top=0;left=0;right=0;bottom=0;align=left;verticalAlign=top;fillColor=none;spacingLeft=34;spacingRight=4;overflow=hidden;rotatable=0;points=[[0,0.5],[1,0.5]];portConstraint=eastwest;dropTarget=0;fontSize=12;" parent="NEOsGIZV13K515iA0hNl-4" vertex="1">
          <mxGeometry y="156" width="220" height="26" as="geometry"/>
        </mxCell>
        <mxCell id="NEOsGIZV13K515iA0hNl-16" value="" style="shape=partialRectangle;top=0;left=0;bottom=0;fillColor=none;align=left;verticalAlign=top;spacingLeft=4;spacingRight=4;overflow=hidden;rotatable=0;points=[];portConstraint=eastwest;part=1;fontSize=12;" parent="NEOsGIZV13K515iA0hNl-15" vertex="1" connectable="0">
          <mxGeometry width="30" height="26" as="geometry"/>
        </mxCell>
        <mxCell id="NEOsGIZV13K515iA0hNl-17" value="Gemeente varchar (255)" style="shape=partialRectangle;top=0;left=0;right=0;bottom=0;align=left;verticalAlign=top;fillColor=none;spacingLeft=34;spacingRight=4;overflow=hidden;rotatable=0;points=[[0,0.5],[1,0.5]];portConstraint=eastwest;dropTarget=0;fontSize=12;" parent="NEOsGIZV13K515iA0hNl-4" vertex="1">
          <mxGeometry y="182" width="220" height="26" as="geometry"/>
        </mxCell>
        <mxCell id="NEOsGIZV13K515iA0hNl-18" value="" style="shape=partialRectangle;top=0;left=0;bottom=0;fillColor=none;align=left;verticalAlign=top;spacingLeft=4;spacingRight=4;overflow=hidden;rotatable=0;points=[];portConstraint=eastwest;part=1;fontSize=12;" parent="NEOsGIZV13K515iA0hNl-17" vertex="1" connectable="0">
          <mxGeometry width="30" height="26" as="geometry"/>
        </mxCell>
        <mxCell id="NEOsGIZV13K515iA0hNl-19" value="Postcode int " style="shape=partialRectangle;top=0;left=0;right=0;bottom=0;align=left;verticalAlign=top;fillColor=none;spacingLeft=34;spacingRight=4;overflow=hidden;rotatable=0;points=[[0,0.5],[1,0.5]];portConstraint=eastwest;dropTarget=0;fontSize=12;" parent="NEOsGIZV13K515iA0hNl-4" vertex="1">
          <mxGeometry y="208" width="220" height="26" as="geometry"/>
        </mxCell>
        <mxCell id="NEOsGIZV13K515iA0hNl-20" value="" style="shape=partialRectangle;top=0;left=0;bottom=0;fillColor=none;align=left;verticalAlign=top;spacingLeft=4;spacingRight=4;overflow=hidden;rotatable=0;points=[];portConstraint=eastwest;part=1;fontSize=12;" parent="NEOsGIZV13K515iA0hNl-19" vertex="1" connectable="0">
          <mxGeometry width="30" height="26" as="geometry"/>
        </mxCell>
        <mxCell id="NEOsGIZV13K515iA0hNl-21" value="Land varchar (255)" style="shape=partialRectangle;top=0;left=0;right=0;bottom=0;align=left;verticalAlign=top;fillColor=none;spacingLeft=34;spacingRight=4;overflow=hidden;rotatable=0;points=[[0,0.5],[1,0.5]];portConstraint=eastwest;dropTarget=0;fontSize=12;" parent="NEOsGIZV13K515iA0hNl-4" vertex="1">
          <mxGeometry y="234" width="220" height="26" as="geometry"/>
        </mxCell>
        <mxCell id="NEOsGIZV13K515iA0hNl-22" value="" style="shape=partialRectangle;top=0;left=0;bottom=0;fillColor=none;align=left;verticalAlign=top;spacingLeft=4;spacingRight=4;overflow=hidden;rotatable=0;points=[];portConstraint=eastwest;part=1;fontSize=12;" parent="NEOsGIZV13K515iA0hNl-21" vertex="1" connectable="0">
          <mxGeometry width="30" height="26" as="geometry"/>
        </mxCell>
        <mxCell id="A8dW5q5iUG7Via8x0HIp-1" value="Telefoonnummer varchar(255)" style="shape=partialRectangle;top=0;left=0;right=0;bottom=0;align=left;verticalAlign=top;fillColor=none;spacingLeft=34;spacingRight=4;overflow=hidden;rotatable=0;points=[[0,0.5],[1,0.5]];portConstraint=eastwest;dropTarget=0;fontSize=12;" parent="NEOsGIZV13K515iA0hNl-4" vertex="1">
          <mxGeometry y="260" width="220" height="26" as="geometry"/>
        </mxCell>
        <mxCell id="A8dW5q5iUG7Via8x0HIp-2" value="" style="shape=partialRectangle;top=0;left=0;bottom=0;fillColor=none;align=left;verticalAlign=top;spacingLeft=4;spacingRight=4;overflow=hidden;rotatable=0;points=[];portConstraint=eastwest;part=1;fontSize=12;" parent="A8dW5q5iUG7Via8x0HIp-1" vertex="1" connectable="0">
          <mxGeometry width="30" height="26" as="geometry"/>
        </mxCell>
        <mxCell id="A8dW5q5iUG7Via8x0HIp-3" value="Type varchar (255)" style="shape=partialRectangle;top=0;left=0;right=0;bottom=0;align=left;verticalAlign=top;fillColor=none;spacingLeft=34;spacingRight=4;overflow=hidden;rotatable=0;points=[[0,0.5],[1,0.5]];portConstraint=eastwest;dropTarget=0;fontSize=12;" parent="NEOsGIZV13K515iA0hNl-4" vertex="1">
          <mxGeometry y="286" width="220" height="26" as="geometry"/>
        </mxCell>
        <mxCell id="A8dW5q5iUG7Via8x0HIp-4" value="" style="shape=partialRectangle;top=0;left=0;bottom=0;fillColor=none;align=left;verticalAlign=top;spacingLeft=4;spacingRight=4;overflow=hidden;rotatable=0;points=[];portConstraint=eastwest;part=1;fontSize=12;" parent="A8dW5q5iUG7Via8x0HIp-3" vertex="1" connectable="0">
          <mxGeometry width="30" height="26" as="geometry"/>
        </mxCell>
        <mxCell id="A8dW5q5iUG7Via8x0HIp-16" value="CategorieId int" style="shape=partialRectangle;top=0;left=0;right=0;bottom=0;align=left;verticalAlign=top;fillColor=none;spacingLeft=34;spacingRight=4;overflow=hidden;rotatable=0;points=[[0,0.5],[1,0.5]];portConstraint=eastwest;dropTarget=0;fontSize=12;fontStyle=2" parent="NEOsGIZV13K515iA0hNl-4" vertex="1">
          <mxGeometry y="312" width="220" height="26" as="geometry"/>
        </mxCell>
        <mxCell id="A8dW5q5iUG7Via8x0HIp-17" value="FK" style="shape=partialRectangle;top=0;left=0;bottom=0;fillColor=none;align=left;verticalAlign=top;spacingLeft=4;spacingRight=4;overflow=hidden;rotatable=0;points=[];portConstraint=eastwest;part=1;fontSize=12;" parent="A8dW5q5iUG7Via8x0HIp-16" vertex="1" connectable="0">
          <mxGeometry width="30" height="26" as="geometry"/>
        </mxCell>
        <mxCell id="NEOsGIZV13K515iA0hNl-13" value="" style="shape=partialRectangle;top=0;left=0;right=0;bottom=0;align=left;verticalAlign=top;fillColor=none;spacingLeft=34;spacingRight=4;overflow=hidden;rotatable=0;points=[[0,0.5],[1,0.5]];portConstraint=eastwest;dropTarget=0;fontSize=12;" parent="NEOsGIZV13K515iA0hNl-4" vertex="1">
          <mxGeometry y="338" width="220" height="10" as="geometry"/>
        </mxCell>
        <mxCell id="NEOsGIZV13K515iA0hNl-14" value="" style="shape=partialRectangle;top=0;left=0;bottom=0;fillColor=none;align=left;verticalAlign=top;spacingLeft=4;spacingRight=4;overflow=hidden;rotatable=0;points=[];portConstraint=eastwest;part=1;fontSize=12;" parent="NEOsGIZV13K515iA0hNl-13" vertex="1" connectable="0">
          <mxGeometry width="30" height="10" as="geometry"/>
        </mxCell>
        <mxCell id="A8dW5q5iUG7Via8x0HIp-5" value="Categorie" style="swimlane;fontStyle=0;childLayout=stackLayout;horizontal=1;startSize=26;fillColor=#e0e0e0;horizontalStack=0;resizeParent=1;resizeParentMax=0;resizeLast=0;collapsible=1;marginBottom=0;swimlaneFillColor=#ffffff;align=center;fontSize=14;" parent="1" vertex="1">
          <mxGeometry x="320" y="2020" width="160" height="92" as="geometry"/>
        </mxCell>
        <mxCell id="A8dW5q5iUG7Via8x0HIp-6" value="Id int" style="shape=partialRectangle;top=0;left=0;right=0;bottom=1;align=left;verticalAlign=middle;fillColor=none;spacingLeft=34;spacingRight=4;overflow=hidden;rotatable=0;points=[[0,0.5],[1,0.5]];portConstraint=eastwest;dropTarget=0;fontStyle=5;fontSize=12;" parent="A8dW5q5iUG7Via8x0HIp-5" vertex="1">
          <mxGeometry y="26" width="160" height="30" as="geometry"/>
        </mxCell>
        <mxCell id="A8dW5q5iUG7Via8x0HIp-7" value="PK" style="shape=partialRectangle;top=0;left=0;bottom=0;fillColor=none;align=left;verticalAlign=middle;spacingLeft=4;spacingRight=4;overflow=hidden;rotatable=0;points=[];portConstraint=eastwest;part=1;fontSize=12;" parent="A8dW5q5iUG7Via8x0HIp-6" vertex="1" connectable="0">
          <mxGeometry width="30" height="30" as="geometry"/>
        </mxCell>
        <mxCell id="A8dW5q5iUG7Via8x0HIp-8" value="Naam varchar (255)" style="shape=partialRectangle;top=0;left=0;right=0;bottom=0;align=left;verticalAlign=top;fillColor=none;spacingLeft=34;spacingRight=4;overflow=hidden;rotatable=0;points=[[0,0.5],[1,0.5]];portConstraint=eastwest;dropTarget=0;fontSize=12;" parent="A8dW5q5iUG7Via8x0HIp-5" vertex="1">
          <mxGeometry y="56" width="160" height="26" as="geometry"/>
        </mxCell>
        <mxCell id="A8dW5q5iUG7Via8x0HIp-9" value="" style="shape=partialRectangle;top=0;left=0;bottom=0;fillColor=none;align=left;verticalAlign=top;spacingLeft=4;spacingRight=4;overflow=hidden;rotatable=0;points=[];portConstraint=eastwest;part=1;fontSize=12;" parent="A8dW5q5iUG7Via8x0HIp-8" vertex="1" connectable="0">
          <mxGeometry width="30" height="26" as="geometry"/>
        </mxCell>
        <mxCell id="A8dW5q5iUG7Via8x0HIp-14" value="" style="shape=partialRectangle;top=0;left=0;right=0;bottom=0;align=left;verticalAlign=top;fillColor=none;spacingLeft=34;spacingRight=4;overflow=hidden;rotatable=0;points=[[0,0.5],[1,0.5]];portConstraint=eastwest;dropTarget=0;fontSize=12;" parent="A8dW5q5iUG7Via8x0HIp-5" vertex="1">
          <mxGeometry y="82" width="160" height="10" as="geometry"/>
        </mxCell>
        <mxCell id="A8dW5q5iUG7Via8x0HIp-15" value="" style="shape=partialRectangle;top=0;left=0;bottom=0;fillColor=none;align=left;verticalAlign=top;spacingLeft=4;spacingRight=4;overflow=hidden;rotatable=0;points=[];portConstraint=eastwest;part=1;fontSize=12;" parent="A8dW5q5iUG7Via8x0HIp-14" vertex="1" connectable="0">
          <mxGeometry width="30" height="10" as="geometry"/>
        </mxCell>
        <mxCell id="A8dW5q5iUG7Via8x0HIp-18" value="" style="edgeStyle=orthogonalEdgeStyle;rounded=0;orthogonalLoop=1;jettySize=auto;html=1;dashed=1;startArrow=ERone;startFill=0;endArrow=ERzeroToMany;endFill=1;entryX=1.005;entryY=0.769;entryDx=0;entryDy=0;entryPerimeter=0;" parent="1" source="A8dW5q5iUG7Via8x0HIp-6" target="A8dW5q5iUG7Via8x0HIp-16" edge="1">
          <mxGeometry relative="1" as="geometry">
            <Array as="points">
              <mxPoint x="280" y="2061"/>
              <mxPoint x="280" y="2332"/>
            </Array>
          </mxGeometry>
        </mxCell>
        <mxCell id="A8dW5q5iUG7Via8x0HIp-21" value="Skill" style="swimlane;fontStyle=0;childLayout=stackLayout;horizontal=1;startSize=26;fillColor=#e0e0e0;horizontalStack=0;resizeParent=1;resizeParentMax=0;resizeLast=0;collapsible=1;marginBottom=0;swimlaneFillColor=#ffffff;align=center;fontSize=14;" parent="1" vertex="1">
          <mxGeometry x="550" y="2164" width="160" height="92" as="geometry"/>
        </mxCell>
        <mxCell id="A8dW5q5iUG7Via8x0HIp-22" value="Id int" style="shape=partialRectangle;top=0;left=0;right=0;bottom=1;align=left;verticalAlign=middle;fillColor=none;spacingLeft=34;spacingRight=4;overflow=hidden;rotatable=0;points=[[0,0.5],[1,0.5]];portConstraint=eastwest;dropTarget=0;fontStyle=5;fontSize=12;" parent="A8dW5q5iUG7Via8x0HIp-21" vertex="1">
          <mxGeometry y="26" width="160" height="30" as="geometry"/>
        </mxCell>
        <mxCell id="A8dW5q5iUG7Via8x0HIp-23" value="PK" style="shape=partialRectangle;top=0;left=0;bottom=0;fillColor=none;align=left;verticalAlign=middle;spacingLeft=4;spacingRight=4;overflow=hidden;rotatable=0;points=[];portConstraint=eastwest;part=1;fontSize=12;" parent="A8dW5q5iUG7Via8x0HIp-22" vertex="1" connectable="0">
          <mxGeometry width="30" height="30" as="geometry"/>
        </mxCell>
        <mxCell id="A8dW5q5iUG7Via8x0HIp-24" value="Naam varchar (255)" style="shape=partialRectangle;top=0;left=0;right=0;bottom=0;align=left;verticalAlign=top;fillColor=none;spacingLeft=34;spacingRight=4;overflow=hidden;rotatable=0;points=[[0,0.5],[1,0.5]];portConstraint=eastwest;dropTarget=0;fontSize=12;" parent="A8dW5q5iUG7Via8x0HIp-21" vertex="1">
          <mxGeometry y="56" width="160" height="26" as="geometry"/>
        </mxCell>
        <mxCell id="A8dW5q5iUG7Via8x0HIp-25" value="" style="shape=partialRectangle;top=0;left=0;bottom=0;fillColor=none;align=left;verticalAlign=top;spacingLeft=4;spacingRight=4;overflow=hidden;rotatable=0;points=[];portConstraint=eastwest;part=1;fontSize=12;" parent="A8dW5q5iUG7Via8x0HIp-24" vertex="1" connectable="0">
          <mxGeometry width="30" height="26" as="geometry"/>
        </mxCell>
        <mxCell id="A8dW5q5iUG7Via8x0HIp-26" value="" style="shape=partialRectangle;top=0;left=0;right=0;bottom=0;align=left;verticalAlign=top;fillColor=none;spacingLeft=34;spacingRight=4;overflow=hidden;rotatable=0;points=[[0,0.5],[1,0.5]];portConstraint=eastwest;dropTarget=0;fontSize=12;" parent="A8dW5q5iUG7Via8x0HIp-21" vertex="1">
          <mxGeometry y="82" width="160" height="10" as="geometry"/>
        </mxCell>
        <mxCell id="A8dW5q5iUG7Via8x0HIp-27" value="" style="shape=partialRectangle;top=0;left=0;bottom=0;fillColor=none;align=left;verticalAlign=top;spacingLeft=4;spacingRight=4;overflow=hidden;rotatable=0;points=[];portConstraint=eastwest;part=1;fontSize=12;" parent="A8dW5q5iUG7Via8x0HIp-26" vertex="1" connectable="0">
          <mxGeometry width="30" height="10" as="geometry"/>
        </mxCell>
        <mxCell id="A8dW5q5iUG7Via8x0HIp-28" value="PeroonSkill" style="swimlane;fontStyle=0;childLayout=stackLayout;horizontal=1;startSize=26;fillColor=#e0e0e0;horizontalStack=0;resizeParent=1;resizeParentMax=0;resizeLast=0;collapsible=1;marginBottom=0;swimlaneFillColor=#ffffff;align=center;fontSize=14;" parent="1" vertex="1">
          <mxGeometry x="320" y="2164" width="160" height="118" as="geometry"/>
        </mxCell>
        <mxCell id="A8dW5q5iUG7Via8x0HIp-29" value="Id int" style="shape=partialRectangle;top=0;left=0;right=0;bottom=1;align=left;verticalAlign=middle;fillColor=none;spacingLeft=34;spacingRight=4;overflow=hidden;rotatable=0;points=[[0,0.5],[1,0.5]];portConstraint=eastwest;dropTarget=0;fontStyle=5;fontSize=12;" parent="A8dW5q5iUG7Via8x0HIp-28" vertex="1">
          <mxGeometry y="26" width="160" height="30" as="geometry"/>
        </mxCell>
        <mxCell id="A8dW5q5iUG7Via8x0HIp-30" value="PK" style="shape=partialRectangle;top=0;left=0;bottom=0;fillColor=none;align=left;verticalAlign=middle;spacingLeft=4;spacingRight=4;overflow=hidden;rotatable=0;points=[];portConstraint=eastwest;part=1;fontSize=12;" parent="A8dW5q5iUG7Via8x0HIp-29" vertex="1" connectable="0">
          <mxGeometry width="30" height="30" as="geometry"/>
        </mxCell>
        <mxCell id="A8dW5q5iUG7Via8x0HIp-31" value="PersoonId int" style="shape=partialRectangle;top=0;left=0;right=0;bottom=0;align=left;verticalAlign=top;fillColor=none;spacingLeft=34;spacingRight=4;overflow=hidden;rotatable=0;points=[[0,0.5],[1,0.5]];portConstraint=eastwest;dropTarget=0;fontSize=12;fontStyle=2" parent="A8dW5q5iUG7Via8x0HIp-28" vertex="1">
          <mxGeometry y="56" width="160" height="26" as="geometry"/>
        </mxCell>
        <mxCell id="A8dW5q5iUG7Via8x0HIp-32" value="FK" style="shape=partialRectangle;top=0;left=0;bottom=0;fillColor=none;align=left;verticalAlign=top;spacingLeft=4;spacingRight=4;overflow=hidden;rotatable=0;points=[];portConstraint=eastwest;part=1;fontSize=12;" parent="A8dW5q5iUG7Via8x0HIp-31" vertex="1" connectable="0">
          <mxGeometry width="30" height="26" as="geometry"/>
        </mxCell>
        <mxCell id="A8dW5q5iUG7Via8x0HIp-35" value="SkillId int" style="shape=partialRectangle;top=0;left=0;right=0;bottom=0;align=left;verticalAlign=top;fillColor=none;spacingLeft=34;spacingRight=4;overflow=hidden;rotatable=0;points=[[0,0.5],[1,0.5]];portConstraint=eastwest;dropTarget=0;fontSize=12;fontStyle=2" parent="A8dW5q5iUG7Via8x0HIp-28" vertex="1">
          <mxGeometry y="82" width="160" height="26" as="geometry"/>
        </mxCell>
        <mxCell id="A8dW5q5iUG7Via8x0HIp-36" value="FK" style="shape=partialRectangle;top=0;left=0;bottom=0;fillColor=none;align=left;verticalAlign=top;spacingLeft=4;spacingRight=4;overflow=hidden;rotatable=0;points=[];portConstraint=eastwest;part=1;fontSize=12;" parent="A8dW5q5iUG7Via8x0HIp-35" vertex="1" connectable="0">
          <mxGeometry width="30" height="26" as="geometry"/>
        </mxCell>
        <mxCell id="A8dW5q5iUG7Via8x0HIp-33" value="" style="shape=partialRectangle;top=0;left=0;right=0;bottom=0;align=left;verticalAlign=top;fillColor=none;spacingLeft=34;spacingRight=4;overflow=hidden;rotatable=0;points=[[0,0.5],[1,0.5]];portConstraint=eastwest;dropTarget=0;fontSize=12;" parent="A8dW5q5iUG7Via8x0HIp-28" vertex="1">
          <mxGeometry y="108" width="160" height="10" as="geometry"/>
        </mxCell>
        <mxCell id="A8dW5q5iUG7Via8x0HIp-34" value="" style="shape=partialRectangle;top=0;left=0;bottom=0;fillColor=none;align=left;verticalAlign=top;spacingLeft=4;spacingRight=4;overflow=hidden;rotatable=0;points=[];portConstraint=eastwest;part=1;fontSize=12;" parent="A8dW5q5iUG7Via8x0HIp-33" vertex="1" connectable="0">
          <mxGeometry width="30" height="10" as="geometry"/>
        </mxCell>
        <mxCell id="A8dW5q5iUG7Via8x0HIp-91" value="" style="edgeStyle=orthogonalEdgeStyle;rounded=0;orthogonalLoop=1;jettySize=auto;html=1;dashed=1;startArrow=ERone;startFill=0;endArrow=ERzeroToMany;endFill=1;entryX=1;entryY=0.5;entryDx=0;entryDy=0;" parent="1" source="A8dW5q5iUG7Via8x0HIp-22" target="A8dW5q5iUG7Via8x0HIp-35" edge="1">
          <mxGeometry relative="1" as="geometry"/>
        </mxCell>
        <mxCell id="A8dW5q5iUG7Via8x0HIp-92" value="Boeking" style="swimlane;fontStyle=0;childLayout=stackLayout;horizontal=1;startSize=26;fillColor=#e0e0e0;horizontalStack=0;resizeParent=1;resizeParentMax=0;resizeLast=0;collapsible=1;marginBottom=0;swimlaneFillColor=#ffffff;align=center;fontSize=14;" parent="1" vertex="1">
          <mxGeometry x="710" y="1994" width="160" height="170" as="geometry"/>
        </mxCell>
        <mxCell id="A8dW5q5iUG7Via8x0HIp-93" value="Id int" style="shape=partialRectangle;top=0;left=0;right=0;bottom=1;align=left;verticalAlign=middle;fillColor=none;spacingLeft=34;spacingRight=4;overflow=hidden;rotatable=0;points=[[0,0.5],[1,0.5]];portConstraint=eastwest;dropTarget=0;fontStyle=5;fontSize=12;" parent="A8dW5q5iUG7Via8x0HIp-92" vertex="1">
          <mxGeometry y="26" width="160" height="30" as="geometry"/>
        </mxCell>
        <mxCell id="A8dW5q5iUG7Via8x0HIp-94" value="PK" style="shape=partialRectangle;top=0;left=0;bottom=0;fillColor=none;align=left;verticalAlign=middle;spacingLeft=4;spacingRight=4;overflow=hidden;rotatable=0;points=[];portConstraint=eastwest;part=1;fontSize=12;" parent="A8dW5q5iUG7Via8x0HIp-93" vertex="1" connectable="0">
          <mxGeometry width="30" height="30" as="geometry"/>
        </mxCell>
        <mxCell id="A8dW5q5iUG7Via8x0HIp-95" value="BedrijfId int" style="shape=partialRectangle;top=0;left=0;right=0;bottom=0;align=left;verticalAlign=top;fillColor=none;spacingLeft=34;spacingRight=4;overflow=hidden;rotatable=0;points=[[0,0.5],[1,0.5]];portConstraint=eastwest;dropTarget=0;fontSize=12;fontStyle=2" parent="A8dW5q5iUG7Via8x0HIp-92" vertex="1">
          <mxGeometry y="56" width="160" height="26" as="geometry"/>
        </mxCell>
        <mxCell id="A8dW5q5iUG7Via8x0HIp-96" value="FK" style="shape=partialRectangle;top=0;left=0;bottom=0;fillColor=none;align=left;verticalAlign=top;spacingLeft=4;spacingRight=4;overflow=hidden;rotatable=0;points=[];portConstraint=eastwest;part=1;fontSize=12;" parent="A8dW5q5iUG7Via8x0HIp-95" vertex="1" connectable="0">
          <mxGeometry width="30" height="26" as="geometry"/>
        </mxCell>
        <mxCell id="A8dW5q5iUG7Via8x0HIp-97" value="PersoonId int" style="shape=partialRectangle;top=0;left=0;right=0;bottom=0;align=left;verticalAlign=top;fillColor=none;spacingLeft=34;spacingRight=4;overflow=hidden;rotatable=0;points=[[0,0.5],[1,0.5]];portConstraint=eastwest;dropTarget=0;fontSize=12;fontStyle=2" parent="A8dW5q5iUG7Via8x0HIp-92" vertex="1">
          <mxGeometry y="82" width="160" height="26" as="geometry"/>
        </mxCell>
        <mxCell id="A8dW5q5iUG7Via8x0HIp-98" value="FK" style="shape=partialRectangle;top=0;left=0;bottom=0;fillColor=none;align=left;verticalAlign=top;spacingLeft=4;spacingRight=4;overflow=hidden;rotatable=0;points=[];portConstraint=eastwest;part=1;fontSize=12;" parent="A8dW5q5iUG7Via8x0HIp-97" vertex="1" connectable="0">
          <mxGeometry width="30" height="26" as="geometry"/>
        </mxCell>
        <mxCell id="A8dW5q5iUG7Via8x0HIp-177" value="Begindatum date" style="shape=partialRectangle;top=0;left=0;right=0;bottom=0;align=left;verticalAlign=top;fillColor=none;spacingLeft=34;spacingRight=4;overflow=hidden;rotatable=0;points=[[0,0.5],[1,0.5]];portConstraint=eastwest;dropTarget=0;fontSize=12;fontStyle=0" parent="A8dW5q5iUG7Via8x0HIp-92" vertex="1">
          <mxGeometry y="108" width="160" height="26" as="geometry"/>
        </mxCell>
        <mxCell id="A8dW5q5iUG7Via8x0HIp-178" value="" style="shape=partialRectangle;top=0;left=0;bottom=0;fillColor=none;align=left;verticalAlign=top;spacingLeft=4;spacingRight=4;overflow=hidden;rotatable=0;points=[];portConstraint=eastwest;part=1;fontSize=12;" parent="A8dW5q5iUG7Via8x0HIp-177" vertex="1" connectable="0">
          <mxGeometry width="30" height="26" as="geometry"/>
        </mxCell>
        <mxCell id="A8dW5q5iUG7Via8x0HIp-179" value="Eindatum date NA" style="shape=partialRectangle;top=0;left=0;right=0;bottom=0;align=left;verticalAlign=top;fillColor=none;spacingLeft=34;spacingRight=4;overflow=hidden;rotatable=0;points=[[0,0.5],[1,0.5]];portConstraint=eastwest;dropTarget=0;fontSize=12;fontStyle=0" parent="A8dW5q5iUG7Via8x0HIp-92" vertex="1">
          <mxGeometry y="134" width="160" height="26" as="geometry"/>
        </mxCell>
        <mxCell id="A8dW5q5iUG7Via8x0HIp-180" value="" style="shape=partialRectangle;top=0;left=0;bottom=0;fillColor=none;align=left;verticalAlign=top;spacingLeft=4;spacingRight=4;overflow=hidden;rotatable=0;points=[];portConstraint=eastwest;part=1;fontSize=12;" parent="A8dW5q5iUG7Via8x0HIp-179" vertex="1" connectable="0">
          <mxGeometry width="30" height="26" as="geometry"/>
        </mxCell>
        <mxCell id="A8dW5q5iUG7Via8x0HIp-99" value="" style="shape=partialRectangle;top=0;left=0;right=0;bottom=0;align=left;verticalAlign=top;fillColor=none;spacingLeft=34;spacingRight=4;overflow=hidden;rotatable=0;points=[[0,0.5],[1,0.5]];portConstraint=eastwest;dropTarget=0;fontSize=12;" parent="A8dW5q5iUG7Via8x0HIp-92" vertex="1">
          <mxGeometry y="160" width="160" height="10" as="geometry"/>
        </mxCell>
        <mxCell id="A8dW5q5iUG7Via8x0HIp-100" value="" style="shape=partialRectangle;top=0;left=0;bottom=0;fillColor=none;align=left;verticalAlign=top;spacingLeft=4;spacingRight=4;overflow=hidden;rotatable=0;points=[];portConstraint=eastwest;part=1;fontSize=12;" parent="A8dW5q5iUG7Via8x0HIp-99" vertex="1" connectable="0">
          <mxGeometry width="30" height="10" as="geometry"/>
        </mxCell>
        <mxCell id="A8dW5q5iUG7Via8x0HIp-182" value="" style="edgeStyle=orthogonalEdgeStyle;rounded=0;orthogonalLoop=1;jettySize=auto;html=1;dashed=1;startArrow=ERone;startFill=0;endArrow=ERzeroToMany;endFill=1;entryX=1;entryY=0.769;entryDx=0;entryDy=0;entryPerimeter=0;exitX=0;exitY=0.5;exitDx=0;exitDy=0;" parent="1" source="A8dW5q5iUG7Via8x0HIp-111" target="A8dW5q5iUG7Via8x0HIp-95" edge="1">
          <mxGeometry relative="1" as="geometry"/>
        </mxCell>
        <mxCell id="A8dW5q5iUG7Via8x0HIp-110" value="Bedrijf" style="swimlane;fontStyle=0;childLayout=stackLayout;horizontal=1;startSize=26;fillColor=#e0e0e0;horizontalStack=0;resizeParent=1;resizeParentMax=0;resizeLast=0;collapsible=1;marginBottom=0;swimlaneFillColor=#ffffff;align=center;fontSize=14;" parent="1" vertex="1">
          <mxGeometry x="950" y="1994" width="220" height="260" as="geometry"/>
        </mxCell>
        <mxCell id="A8dW5q5iUG7Via8x0HIp-111" value="Id int" style="shape=partialRectangle;top=0;left=0;right=0;bottom=1;align=left;verticalAlign=middle;fillColor=none;spacingLeft=34;spacingRight=4;overflow=hidden;rotatable=0;points=[[0,0.5],[1,0.5]];portConstraint=eastwest;dropTarget=0;fontStyle=5;fontSize=12;" parent="A8dW5q5iUG7Via8x0HIp-110" vertex="1">
          <mxGeometry y="26" width="220" height="26" as="geometry"/>
        </mxCell>
        <mxCell id="A8dW5q5iUG7Via8x0HIp-112" value="PK" style="shape=partialRectangle;top=0;left=0;bottom=0;fillColor=none;align=left;verticalAlign=middle;spacingLeft=4;spacingRight=4;overflow=hidden;rotatable=0;points=[];portConstraint=eastwest;part=1;fontSize=12;" parent="A8dW5q5iUG7Via8x0HIp-111" vertex="1" connectable="0">
          <mxGeometry width="28.125" height="26" as="geometry"/>
        </mxCell>
        <mxCell id="A8dW5q5iUG7Via8x0HIp-113" value="Voornaam varchar (255)" style="shape=partialRectangle;top=0;left=0;right=0;bottom=0;align=left;verticalAlign=top;fillColor=none;spacingLeft=34;spacingRight=4;overflow=hidden;rotatable=0;points=[[0,0.5],[1,0.5]];portConstraint=eastwest;dropTarget=0;fontSize=12;" parent="A8dW5q5iUG7Via8x0HIp-110" vertex="1">
          <mxGeometry y="52" width="220" height="26" as="geometry"/>
        </mxCell>
        <mxCell id="A8dW5q5iUG7Via8x0HIp-114" value="" style="shape=partialRectangle;top=0;left=0;bottom=0;fillColor=none;align=left;verticalAlign=top;spacingLeft=4;spacingRight=4;overflow=hidden;rotatable=0;points=[];portConstraint=eastwest;part=1;fontSize=12;" parent="A8dW5q5iUG7Via8x0HIp-113" vertex="1" connectable="0">
          <mxGeometry width="30" height="26" as="geometry"/>
        </mxCell>
        <mxCell id="A8dW5q5iUG7Via8x0HIp-115" value="Naam varchat (255)" style="shape=partialRectangle;top=0;left=0;right=0;bottom=0;align=left;verticalAlign=top;fillColor=none;spacingLeft=34;spacingRight=4;overflow=hidden;rotatable=0;points=[[0,0.5],[1,0.5]];portConstraint=eastwest;dropTarget=0;fontSize=12;" parent="A8dW5q5iUG7Via8x0HIp-110" vertex="1">
          <mxGeometry y="78" width="220" height="26" as="geometry"/>
        </mxCell>
        <mxCell id="A8dW5q5iUG7Via8x0HIp-116" value="" style="shape=partialRectangle;top=0;left=0;bottom=0;fillColor=none;align=left;verticalAlign=top;spacingLeft=4;spacingRight=4;overflow=hidden;rotatable=0;points=[];portConstraint=eastwest;part=1;fontSize=12;" parent="A8dW5q5iUG7Via8x0HIp-115" vertex="1" connectable="0">
          <mxGeometry width="30" height="26" as="geometry"/>
        </mxCell>
        <mxCell id="A8dW5q5iUG7Via8x0HIp-117" value="Huisnr varchar (255)" style="shape=partialRectangle;top=0;left=0;right=0;bottom=0;align=left;verticalAlign=top;fillColor=none;spacingLeft=34;spacingRight=4;overflow=hidden;rotatable=0;points=[[0,0.5],[1,0.5]];portConstraint=eastwest;dropTarget=0;fontSize=12;" parent="A8dW5q5iUG7Via8x0HIp-110" vertex="1">
          <mxGeometry y="104" width="220" height="26" as="geometry"/>
        </mxCell>
        <mxCell id="A8dW5q5iUG7Via8x0HIp-118" value="" style="shape=partialRectangle;top=0;left=0;bottom=0;fillColor=none;align=left;verticalAlign=top;spacingLeft=4;spacingRight=4;overflow=hidden;rotatable=0;points=[];portConstraint=eastwest;part=1;fontSize=12;" parent="A8dW5q5iUG7Via8x0HIp-117" vertex="1" connectable="0">
          <mxGeometry width="30" height="26" as="geometry"/>
        </mxCell>
        <mxCell id="A8dW5q5iUG7Via8x0HIp-119" value="Straat varchar (255)" style="shape=partialRectangle;top=0;left=0;right=0;bottom=0;align=left;verticalAlign=top;fillColor=none;spacingLeft=34;spacingRight=4;overflow=hidden;rotatable=0;points=[[0,0.5],[1,0.5]];portConstraint=eastwest;dropTarget=0;fontSize=12;" parent="A8dW5q5iUG7Via8x0HIp-110" vertex="1">
          <mxGeometry y="130" width="220" height="26" as="geometry"/>
        </mxCell>
        <mxCell id="A8dW5q5iUG7Via8x0HIp-120" value="" style="shape=partialRectangle;top=0;left=0;bottom=0;fillColor=none;align=left;verticalAlign=top;spacingLeft=4;spacingRight=4;overflow=hidden;rotatable=0;points=[];portConstraint=eastwest;part=1;fontSize=12;" parent="A8dW5q5iUG7Via8x0HIp-119" vertex="1" connectable="0">
          <mxGeometry width="30" height="26" as="geometry"/>
        </mxCell>
        <mxCell id="A8dW5q5iUG7Via8x0HIp-121" value="Gemeente varchar (255)" style="shape=partialRectangle;top=0;left=0;right=0;bottom=0;align=left;verticalAlign=top;fillColor=none;spacingLeft=34;spacingRight=4;overflow=hidden;rotatable=0;points=[[0,0.5],[1,0.5]];portConstraint=eastwest;dropTarget=0;fontSize=12;" parent="A8dW5q5iUG7Via8x0HIp-110" vertex="1">
          <mxGeometry y="156" width="220" height="26" as="geometry"/>
        </mxCell>
        <mxCell id="A8dW5q5iUG7Via8x0HIp-122" value="" style="shape=partialRectangle;top=0;left=0;bottom=0;fillColor=none;align=left;verticalAlign=top;spacingLeft=4;spacingRight=4;overflow=hidden;rotatable=0;points=[];portConstraint=eastwest;part=1;fontSize=12;" parent="A8dW5q5iUG7Via8x0HIp-121" vertex="1" connectable="0">
          <mxGeometry width="30" height="26" as="geometry"/>
        </mxCell>
        <mxCell id="A8dW5q5iUG7Via8x0HIp-123" value="Postcode int " style="shape=partialRectangle;top=0;left=0;right=0;bottom=0;align=left;verticalAlign=top;fillColor=none;spacingLeft=34;spacingRight=4;overflow=hidden;rotatable=0;points=[[0,0.5],[1,0.5]];portConstraint=eastwest;dropTarget=0;fontSize=12;" parent="A8dW5q5iUG7Via8x0HIp-110" vertex="1">
          <mxGeometry y="182" width="220" height="26" as="geometry"/>
        </mxCell>
        <mxCell id="A8dW5q5iUG7Via8x0HIp-124" value="" style="shape=partialRectangle;top=0;left=0;bottom=0;fillColor=none;align=left;verticalAlign=top;spacingLeft=4;spacingRight=4;overflow=hidden;rotatable=0;points=[];portConstraint=eastwest;part=1;fontSize=12;" parent="A8dW5q5iUG7Via8x0HIp-123" vertex="1" connectable="0">
          <mxGeometry width="30" height="26" as="geometry"/>
        </mxCell>
        <mxCell id="A8dW5q5iUG7Via8x0HIp-125" value="Land varchar (255)" style="shape=partialRectangle;top=0;left=0;right=0;bottom=0;align=left;verticalAlign=top;fillColor=none;spacingLeft=34;spacingRight=4;overflow=hidden;rotatable=0;points=[[0,0.5],[1,0.5]];portConstraint=eastwest;dropTarget=0;fontSize=12;" parent="A8dW5q5iUG7Via8x0HIp-110" vertex="1">
          <mxGeometry y="208" width="220" height="26" as="geometry"/>
        </mxCell>
        <mxCell id="A8dW5q5iUG7Via8x0HIp-126" value="" style="shape=partialRectangle;top=0;left=0;bottom=0;fillColor=none;align=left;verticalAlign=top;spacingLeft=4;spacingRight=4;overflow=hidden;rotatable=0;points=[];portConstraint=eastwest;part=1;fontSize=12;" parent="A8dW5q5iUG7Via8x0HIp-125" vertex="1" connectable="0">
          <mxGeometry width="30" height="26" as="geometry"/>
        </mxCell>
        <mxCell id="A8dW5q5iUG7Via8x0HIp-127" value="Telefoonnummer varchar(255)" style="shape=partialRectangle;top=0;left=0;right=0;bottom=0;align=left;verticalAlign=top;fillColor=none;spacingLeft=34;spacingRight=4;overflow=hidden;rotatable=0;points=[[0,0.5],[1,0.5]];portConstraint=eastwest;dropTarget=0;fontSize=12;" parent="A8dW5q5iUG7Via8x0HIp-110" vertex="1">
          <mxGeometry y="234" width="220" height="26" as="geometry"/>
        </mxCell>
        <mxCell id="A8dW5q5iUG7Via8x0HIp-128" value="" style="shape=partialRectangle;top=0;left=0;bottom=0;fillColor=none;align=left;verticalAlign=top;spacingLeft=4;spacingRight=4;overflow=hidden;rotatable=0;points=[];portConstraint=eastwest;part=1;fontSize=12;" parent="A8dW5q5iUG7Via8x0HIp-127" vertex="1" connectable="0">
          <mxGeometry width="30" height="26" as="geometry"/>
        </mxCell>
      </root>
    </mxGraphModel>
  </diagram>
  <diagram id="pcJHEGV7xEOcZOcVfy2N" name="Oef Film">
    <mxGraphModel dx="700" dy="789" grid="1" gridSize="10" guides="1" tooltips="1" connect="1" arrows="1" fold="1" page="1" pageScale="1" pageWidth="850" pageHeight="1100" math="0" shadow="0">
      <root>
        <mxCell id="oCpj67E38P96a1FKJaM0-0"/>
        <mxCell id="oCpj67E38P96a1FKJaM0-1" parent="oCpj67E38P96a1FKJaM0-0"/>
        <mxCell id="Noxm5cpCZr3M12Uzn7Of-49" value="" style="edgeStyle=orthogonalEdgeStyle;rounded=0;orthogonalLoop=1;jettySize=auto;html=1;dashed=1;startArrow=ERzeroToMany;startFill=1;endArrow=ERone;endFill=0;entryX=0;entryY=0.5;entryDx=0;entryDy=0;" edge="1" parent="oCpj67E38P96a1FKJaM0-1" target="Noxm5cpCZr3M12Uzn7Of-35">
          <mxGeometry relative="1" as="geometry">
            <mxPoint x="240" y="221" as="sourcePoint"/>
          </mxGeometry>
        </mxCell>
        <mxCell id="rptdVZb7NxZnIJd-ajNu-0" value="Film" style="swimlane;fontStyle=0;childLayout=stackLayout;horizontal=1;startSize=26;fillColor=#e0e0e0;horizontalStack=0;resizeParent=1;resizeParentMax=0;resizeLast=0;collapsible=1;marginBottom=0;swimlaneFillColor=#ffffff;align=center;fontSize=14;" vertex="1" parent="oCpj67E38P96a1FKJaM0-1">
          <mxGeometry x="50" y="20" width="190" height="222" as="geometry"/>
        </mxCell>
        <mxCell id="rptdVZb7NxZnIJd-ajNu-1" value="Id" style="shape=partialRectangle;top=0;left=0;right=0;bottom=1;align=left;verticalAlign=middle;fillColor=none;spacingLeft=34;spacingRight=4;overflow=hidden;rotatable=0;points=[[0,0.5],[1,0.5]];portConstraint=eastwest;dropTarget=0;fontStyle=5;fontSize=12;" vertex="1" parent="rptdVZb7NxZnIJd-ajNu-0">
          <mxGeometry y="26" width="190" height="30" as="geometry"/>
        </mxCell>
        <mxCell id="rptdVZb7NxZnIJd-ajNu-2" value="PK" style="shape=partialRectangle;top=0;left=0;bottom=0;fillColor=none;align=left;verticalAlign=middle;spacingLeft=4;spacingRight=4;overflow=hidden;rotatable=0;points=[];portConstraint=eastwest;part=1;fontSize=12;" vertex="1" connectable="0" parent="rptdVZb7NxZnIJd-ajNu-1">
          <mxGeometry width="30" height="30" as="geometry"/>
        </mxCell>
        <mxCell id="rptdVZb7NxZnIJd-ajNu-3" value="Titel varchar (255)" style="shape=partialRectangle;top=0;left=0;right=0;bottom=0;align=left;verticalAlign=top;fillColor=none;spacingLeft=34;spacingRight=4;overflow=hidden;rotatable=0;points=[[0,0.5],[1,0.5]];portConstraint=eastwest;dropTarget=0;fontSize=12;" vertex="1" parent="rptdVZb7NxZnIJd-ajNu-0">
          <mxGeometry y="56" width="190" height="26" as="geometry"/>
        </mxCell>
        <mxCell id="rptdVZb7NxZnIJd-ajNu-4" value="" style="shape=partialRectangle;top=0;left=0;bottom=0;fillColor=none;align=left;verticalAlign=top;spacingLeft=4;spacingRight=4;overflow=hidden;rotatable=0;points=[];portConstraint=eastwest;part=1;fontSize=12;" vertex="1" connectable="0" parent="rptdVZb7NxZnIJd-ajNu-3">
          <mxGeometry width="30" height="26" as="geometry"/>
        </mxCell>
        <mxCell id="rptdVZb7NxZnIJd-ajNu-5" value="Releasedatum date" style="shape=partialRectangle;top=0;left=0;right=0;bottom=0;align=left;verticalAlign=top;fillColor=none;spacingLeft=34;spacingRight=4;overflow=hidden;rotatable=0;points=[[0,0.5],[1,0.5]];portConstraint=eastwest;dropTarget=0;fontSize=12;" vertex="1" parent="rptdVZb7NxZnIJd-ajNu-0">
          <mxGeometry y="82" width="190" height="26" as="geometry"/>
        </mxCell>
        <mxCell id="rptdVZb7NxZnIJd-ajNu-6" value="" style="shape=partialRectangle;top=0;left=0;bottom=0;fillColor=none;align=left;verticalAlign=top;spacingLeft=4;spacingRight=4;overflow=hidden;rotatable=0;points=[];portConstraint=eastwest;part=1;fontSize=12;" vertex="1" connectable="0" parent="rptdVZb7NxZnIJd-ajNu-5">
          <mxGeometry width="30" height="26" as="geometry"/>
        </mxCell>
        <mxCell id="rptdVZb7NxZnIJd-ajNu-7" value="Korte inhoud varchar (255)" style="shape=partialRectangle;top=0;left=0;right=0;bottom=0;align=left;verticalAlign=top;fillColor=none;spacingLeft=34;spacingRight=4;overflow=hidden;rotatable=0;points=[[0,0.5],[1,0.5]];portConstraint=eastwest;dropTarget=0;fontSize=12;" vertex="1" parent="rptdVZb7NxZnIJd-ajNu-0">
          <mxGeometry y="108" width="190" height="26" as="geometry"/>
        </mxCell>
        <mxCell id="rptdVZb7NxZnIJd-ajNu-8" value="" style="shape=partialRectangle;top=0;left=0;bottom=0;fillColor=none;align=left;verticalAlign=top;spacingLeft=4;spacingRight=4;overflow=hidden;rotatable=0;points=[];portConstraint=eastwest;part=1;fontSize=12;" vertex="1" connectable="0" parent="rptdVZb7NxZnIJd-ajNu-7">
          <mxGeometry width="30" height="26" as="geometry"/>
        </mxCell>
        <mxCell id="rptdVZb7NxZnIJd-ajNu-11" value="rating int" style="shape=partialRectangle;top=0;left=0;right=0;bottom=0;align=left;verticalAlign=top;fillColor=none;spacingLeft=34;spacingRight=4;overflow=hidden;rotatable=0;points=[[0,0.5],[1,0.5]];portConstraint=eastwest;dropTarget=0;fontSize=12;" vertex="1" parent="rptdVZb7NxZnIJd-ajNu-0">
          <mxGeometry y="134" width="190" height="26" as="geometry"/>
        </mxCell>
        <mxCell id="rptdVZb7NxZnIJd-ajNu-12" value="" style="shape=partialRectangle;top=0;left=0;bottom=0;fillColor=none;align=left;verticalAlign=top;spacingLeft=4;spacingRight=4;overflow=hidden;rotatable=0;points=[];portConstraint=eastwest;part=1;fontSize=12;" vertex="1" connectable="0" parent="rptdVZb7NxZnIJd-ajNu-11">
          <mxGeometry width="30" height="26" as="geometry"/>
        </mxCell>
        <mxCell id="Noxm5cpCZr3M12Uzn7Of-0" value="ProductiehuisId int" style="shape=partialRectangle;top=0;left=0;right=0;bottom=0;align=left;verticalAlign=top;fillColor=none;spacingLeft=34;spacingRight=4;overflow=hidden;rotatable=0;points=[[0,0.5],[1,0.5]];portConstraint=eastwest;dropTarget=0;fontSize=12;fontStyle=2" vertex="1" parent="rptdVZb7NxZnIJd-ajNu-0">
          <mxGeometry y="160" width="190" height="26" as="geometry"/>
        </mxCell>
        <mxCell id="Noxm5cpCZr3M12Uzn7Of-1" value="FK" style="shape=partialRectangle;top=0;left=0;bottom=0;fillColor=none;align=left;verticalAlign=top;spacingLeft=4;spacingRight=4;overflow=hidden;rotatable=0;points=[];portConstraint=eastwest;part=1;fontSize=12;" vertex="1" connectable="0" parent="Noxm5cpCZr3M12Uzn7Of-0">
          <mxGeometry width="30" height="26" as="geometry"/>
        </mxCell>
        <mxCell id="Noxm5cpCZr3M12Uzn7Of-46" value="ActeursId int" style="shape=partialRectangle;top=0;left=0;right=0;bottom=0;align=left;verticalAlign=top;fillColor=none;spacingLeft=34;spacingRight=4;overflow=hidden;rotatable=0;points=[[0,0.5],[1,0.5]];portConstraint=eastwest;dropTarget=0;fontSize=12;fontStyle=2" vertex="1" parent="rptdVZb7NxZnIJd-ajNu-0">
          <mxGeometry y="186" width="190" height="26" as="geometry"/>
        </mxCell>
        <mxCell id="Noxm5cpCZr3M12Uzn7Of-47" value="FK" style="shape=partialRectangle;top=0;left=0;bottom=0;fillColor=none;align=left;verticalAlign=top;spacingLeft=4;spacingRight=4;overflow=hidden;rotatable=0;points=[];portConstraint=eastwest;part=1;fontSize=12;" vertex="1" connectable="0" parent="Noxm5cpCZr3M12Uzn7Of-46">
          <mxGeometry width="30" height="26" as="geometry"/>
        </mxCell>
        <mxCell id="rptdVZb7NxZnIJd-ajNu-9" value="" style="shape=partialRectangle;top=0;left=0;right=0;bottom=0;align=left;verticalAlign=top;fillColor=none;spacingLeft=34;spacingRight=4;overflow=hidden;rotatable=0;points=[[0,0.5],[1,0.5]];portConstraint=eastwest;dropTarget=0;fontSize=12;" vertex="1" parent="rptdVZb7NxZnIJd-ajNu-0">
          <mxGeometry y="212" width="190" height="10" as="geometry"/>
        </mxCell>
        <mxCell id="rptdVZb7NxZnIJd-ajNu-10" value="" style="shape=partialRectangle;top=0;left=0;bottom=0;fillColor=none;align=left;verticalAlign=top;spacingLeft=4;spacingRight=4;overflow=hidden;rotatable=0;points=[];portConstraint=eastwest;part=1;fontSize=12;" vertex="1" connectable="0" parent="rptdVZb7NxZnIJd-ajNu-9">
          <mxGeometry width="30" height="10" as="geometry"/>
        </mxCell>
        <mxCell id="Noxm5cpCZr3M12Uzn7Of-33" value="" style="edgeStyle=orthogonalEdgeStyle;rounded=0;orthogonalLoop=1;jettySize=auto;html=1;dashed=1;startArrow=ERone;startFill=0;endArrow=ERzeroToMany;endFill=1;entryX=1;entryY=0.5;entryDx=0;entryDy=0;exitX=0;exitY=0.5;exitDx=0;exitDy=0;" edge="1" parent="oCpj67E38P96a1FKJaM0-1" source="eEivovPS7UbracMvnYIB-1" target="Noxm5cpCZr3M12Uzn7Of-0">
          <mxGeometry relative="1" as="geometry">
            <mxPoint x="240" y="79" as="targetPoint"/>
          </mxGeometry>
        </mxCell>
        <mxCell id="eEivovPS7UbracMvnYIB-0" value="Productiehuis" style="swimlane;fontStyle=0;childLayout=stackLayout;horizontal=1;startSize=26;fillColor=#e0e0e0;horizontalStack=0;resizeParent=1;resizeParentMax=0;resizeLast=0;collapsible=1;marginBottom=0;swimlaneFillColor=#ffffff;align=center;fontSize=14;" vertex="1" parent="oCpj67E38P96a1FKJaM0-1">
          <mxGeometry x="300" y="20" width="160" height="118" as="geometry"/>
        </mxCell>
        <mxCell id="eEivovPS7UbracMvnYIB-1" value="Id" style="shape=partialRectangle;top=0;left=0;right=0;bottom=1;align=left;verticalAlign=middle;fillColor=none;spacingLeft=34;spacingRight=4;overflow=hidden;rotatable=0;points=[[0,0.5],[1,0.5]];portConstraint=eastwest;dropTarget=0;fontStyle=5;fontSize=12;" vertex="1" parent="eEivovPS7UbracMvnYIB-0">
          <mxGeometry y="26" width="160" height="30" as="geometry"/>
        </mxCell>
        <mxCell id="eEivovPS7UbracMvnYIB-2" value="PK" style="shape=partialRectangle;top=0;left=0;bottom=0;fillColor=none;align=left;verticalAlign=middle;spacingLeft=4;spacingRight=4;overflow=hidden;rotatable=0;points=[];portConstraint=eastwest;part=1;fontSize=12;" vertex="1" connectable="0" parent="eEivovPS7UbracMvnYIB-1">
          <mxGeometry width="30" height="30" as="geometry"/>
        </mxCell>
        <mxCell id="eEivovPS7UbracMvnYIB-3" value="Naam varchar (255)" style="shape=partialRectangle;top=0;left=0;right=0;bottom=0;align=left;verticalAlign=top;fillColor=none;spacingLeft=34;spacingRight=4;overflow=hidden;rotatable=0;points=[[0,0.5],[1,0.5]];portConstraint=eastwest;dropTarget=0;fontSize=12;" vertex="1" parent="eEivovPS7UbracMvnYIB-0">
          <mxGeometry y="56" width="160" height="26" as="geometry"/>
        </mxCell>
        <mxCell id="eEivovPS7UbracMvnYIB-4" value="" style="shape=partialRectangle;top=0;left=0;bottom=0;fillColor=none;align=left;verticalAlign=top;spacingLeft=4;spacingRight=4;overflow=hidden;rotatable=0;points=[];portConstraint=eastwest;part=1;fontSize=12;" vertex="1" connectable="0" parent="eEivovPS7UbracMvnYIB-3">
          <mxGeometry width="30" height="26" as="geometry"/>
        </mxCell>
        <mxCell id="eEivovPS7UbracMvnYIB-5" value="adres varcharÂ  (255)" style="shape=partialRectangle;top=0;left=0;right=0;bottom=0;align=left;verticalAlign=top;fillColor=none;spacingLeft=34;spacingRight=4;overflow=hidden;rotatable=0;points=[[0,0.5],[1,0.5]];portConstraint=eastwest;dropTarget=0;fontSize=12;" vertex="1" parent="eEivovPS7UbracMvnYIB-0">
          <mxGeometry y="82" width="160" height="26" as="geometry"/>
        </mxCell>
        <mxCell id="eEivovPS7UbracMvnYIB-6" value="" style="shape=partialRectangle;top=0;left=0;bottom=0;fillColor=none;align=left;verticalAlign=top;spacingLeft=4;spacingRight=4;overflow=hidden;rotatable=0;points=[];portConstraint=eastwest;part=1;fontSize=12;" vertex="1" connectable="0" parent="eEivovPS7UbracMvnYIB-5">
          <mxGeometry width="30" height="26" as="geometry"/>
        </mxCell>
        <mxCell id="eEivovPS7UbracMvnYIB-9" value="" style="shape=partialRectangle;top=0;left=0;right=0;bottom=0;align=left;verticalAlign=top;fillColor=none;spacingLeft=34;spacingRight=4;overflow=hidden;rotatable=0;points=[[0,0.5],[1,0.5]];portConstraint=eastwest;dropTarget=0;fontSize=12;" vertex="1" parent="eEivovPS7UbracMvnYIB-0">
          <mxGeometry y="108" width="160" height="10" as="geometry"/>
        </mxCell>
        <mxCell id="eEivovPS7UbracMvnYIB-10" value="" style="shape=partialRectangle;top=0;left=0;bottom=0;fillColor=none;align=left;verticalAlign=top;spacingLeft=4;spacingRight=4;overflow=hidden;rotatable=0;points=[];portConstraint=eastwest;part=1;fontSize=12;" vertex="1" connectable="0" parent="eEivovPS7UbracMvnYIB-9">
          <mxGeometry width="30" height="10" as="geometry"/>
        </mxCell>
        <mxCell id="Noxm5cpCZr3M12Uzn7Of-34" value="Acteurs" style="swimlane;fontStyle=0;childLayout=stackLayout;horizontal=1;startSize=26;fillColor=#e0e0e0;horizontalStack=0;resizeParent=1;resizeParentMax=0;resizeLast=0;collapsible=1;marginBottom=0;swimlaneFillColor=#ffffff;align=center;fontSize=14;" vertex="1" parent="oCpj67E38P96a1FKJaM0-1">
          <mxGeometry x="300" y="180" width="220" height="118" as="geometry"/>
        </mxCell>
        <mxCell id="Noxm5cpCZr3M12Uzn7Of-35" value="Id" style="shape=partialRectangle;top=0;left=0;right=0;bottom=1;align=left;verticalAlign=middle;fillColor=none;spacingLeft=34;spacingRight=4;overflow=hidden;rotatable=0;points=[[0,0.5],[1,0.5]];portConstraint=eastwest;dropTarget=0;fontStyle=5;fontSize=12;" vertex="1" parent="Noxm5cpCZr3M12Uzn7Of-34">
          <mxGeometry y="26" width="220" height="30" as="geometry"/>
        </mxCell>
        <mxCell id="Noxm5cpCZr3M12Uzn7Of-36" value="PK" style="shape=partialRectangle;top=0;left=0;bottom=0;fillColor=none;align=left;verticalAlign=middle;spacingLeft=4;spacingRight=4;overflow=hidden;rotatable=0;points=[];portConstraint=eastwest;part=1;fontSize=12;" vertex="1" connectable="0" parent="Noxm5cpCZr3M12Uzn7Of-35">
          <mxGeometry width="30" height="30" as="geometry"/>
        </mxCell>
        <mxCell id="Noxm5cpCZr3M12Uzn7Of-37" value="Naam varchar (255)" style="shape=partialRectangle;top=0;left=0;right=0;bottom=0;align=left;verticalAlign=top;fillColor=none;spacingLeft=34;spacingRight=4;overflow=hidden;rotatable=0;points=[[0,0.5],[1,0.5]];portConstraint=eastwest;dropTarget=0;fontSize=12;" vertex="1" parent="Noxm5cpCZr3M12Uzn7Of-34">
          <mxGeometry y="56" width="220" height="26" as="geometry"/>
        </mxCell>
        <mxCell id="Noxm5cpCZr3M12Uzn7Of-38" value="" style="shape=partialRectangle;top=0;left=0;bottom=0;fillColor=none;align=left;verticalAlign=top;spacingLeft=4;spacingRight=4;overflow=hidden;rotatable=0;points=[];portConstraint=eastwest;part=1;fontSize=12;" vertex="1" connectable="0" parent="Noxm5cpCZr3M12Uzn7Of-37">
          <mxGeometry width="30" height="26" as="geometry"/>
        </mxCell>
        <mxCell id="Noxm5cpCZr3M12Uzn7Of-39" value="Naam Personage varchar (255)" style="shape=partialRectangle;top=0;left=0;right=0;bottom=0;align=left;verticalAlign=top;fillColor=none;spacingLeft=34;spacingRight=4;overflow=hidden;rotatable=0;points=[[0,0.5],[1,0.5]];portConstraint=eastwest;dropTarget=0;fontSize=12;" vertex="1" parent="Noxm5cpCZr3M12Uzn7Of-34">
          <mxGeometry y="82" width="220" height="26" as="geometry"/>
        </mxCell>
        <mxCell id="Noxm5cpCZr3M12Uzn7Of-40" value="" style="shape=partialRectangle;top=0;left=0;bottom=0;fillColor=none;align=left;verticalAlign=top;spacingLeft=4;spacingRight=4;overflow=hidden;rotatable=0;points=[];portConstraint=eastwest;part=1;fontSize=12;" vertex="1" connectable="0" parent="Noxm5cpCZr3M12Uzn7Of-39">
          <mxGeometry width="30" height="26" as="geometry"/>
        </mxCell>
        <mxCell id="Noxm5cpCZr3M12Uzn7Of-43" value="" style="shape=partialRectangle;top=0;left=0;right=0;bottom=0;align=left;verticalAlign=top;fillColor=none;spacingLeft=34;spacingRight=4;overflow=hidden;rotatable=0;points=[[0,0.5],[1,0.5]];portConstraint=eastwest;dropTarget=0;fontSize=12;" vertex="1" parent="Noxm5cpCZr3M12Uzn7Of-34">
          <mxGeometry y="108" width="220" height="10" as="geometry"/>
        </mxCell>
        <mxCell id="Noxm5cpCZr3M12Uzn7Of-44" value="" style="shape=partialRectangle;top=0;left=0;bottom=0;fillColor=none;align=left;verticalAlign=top;spacingLeft=4;spacingRight=4;overflow=hidden;rotatable=0;points=[];portConstraint=eastwest;part=1;fontSize=12;" vertex="1" connectable="0" parent="Noxm5cpCZr3M12Uzn7Of-43">
          <mxGeometry width="30" height="10" as="geometry"/>
        </mxCell>
        <mxCell id="Noxm5cpCZr3M12Uzn7Of-50" value="Filmcrew" style="swimlane;fontStyle=0;childLayout=stackLayout;horizontal=1;startSize=26;fillColor=#e0e0e0;horizontalStack=0;resizeParent=1;resizeParentMax=0;resizeLast=0;collapsible=1;marginBottom=0;swimlaneFillColor=#ffffff;align=center;fontSize=14;" vertex="1" parent="oCpj67E38P96a1FKJaM0-1">
          <mxGeometry x="35" y="310" width="220" height="118" as="geometry"/>
        </mxCell>
        <mxCell id="Noxm5cpCZr3M12Uzn7Of-51" value="Id" style="shape=partialRectangle;top=0;left=0;right=0;bottom=1;align=left;verticalAlign=middle;fillColor=none;spacingLeft=34;spacingRight=4;overflow=hidden;rotatable=0;points=[[0,0.5],[1,0.5]];portConstraint=eastwest;dropTarget=0;fontStyle=5;fontSize=12;" vertex="1" parent="Noxm5cpCZr3M12Uzn7Of-50">
          <mxGeometry y="26" width="220" height="30" as="geometry"/>
        </mxCell>
        <mxCell id="Noxm5cpCZr3M12Uzn7Of-52" value="PK" style="shape=partialRectangle;top=0;left=0;bottom=0;fillColor=none;align=left;verticalAlign=middle;spacingLeft=4;spacingRight=4;overflow=hidden;rotatable=0;points=[];portConstraint=eastwest;part=1;fontSize=12;" vertex="1" connectable="0" parent="Noxm5cpCZr3M12Uzn7Of-51">
          <mxGeometry width="30" height="30" as="geometry"/>
        </mxCell>
        <mxCell id="Noxm5cpCZr3M12Uzn7Of-53" value="Naam varchar (255)" style="shape=partialRectangle;top=0;left=0;right=0;bottom=0;align=left;verticalAlign=top;fillColor=none;spacingLeft=34;spacingRight=4;overflow=hidden;rotatable=0;points=[[0,0.5],[1,0.5]];portConstraint=eastwest;dropTarget=0;fontSize=12;" vertex="1" parent="Noxm5cpCZr3M12Uzn7Of-50">
          <mxGeometry y="56" width="220" height="26" as="geometry"/>
        </mxCell>
        <mxCell id="Noxm5cpCZr3M12Uzn7Of-54" value="" style="shape=partialRectangle;top=0;left=0;bottom=0;fillColor=none;align=left;verticalAlign=top;spacingLeft=4;spacingRight=4;overflow=hidden;rotatable=0;points=[];portConstraint=eastwest;part=1;fontSize=12;" vertex="1" connectable="0" parent="Noxm5cpCZr3M12Uzn7Of-53">
          <mxGeometry width="30" height="26" as="geometry"/>
        </mxCell>
        <mxCell id="Noxm5cpCZr3M12Uzn7Of-55" value="Naam Personage varchar (255)" style="shape=partialRectangle;top=0;left=0;right=0;bottom=0;align=left;verticalAlign=top;fillColor=none;spacingLeft=34;spacingRight=4;overflow=hidden;rotatable=0;points=[[0,0.5],[1,0.5]];portConstraint=eastwest;dropTarget=0;fontSize=12;" vertex="1" parent="Noxm5cpCZr3M12Uzn7Of-50">
          <mxGeometry y="82" width="220" height="26" as="geometry"/>
        </mxCell>
        <mxCell id="Noxm5cpCZr3M12Uzn7Of-56" value="" style="shape=partialRectangle;top=0;left=0;bottom=0;fillColor=none;align=left;verticalAlign=top;spacingLeft=4;spacingRight=4;overflow=hidden;rotatable=0;points=[];portConstraint=eastwest;part=1;fontSize=12;" vertex="1" connectable="0" parent="Noxm5cpCZr3M12Uzn7Of-55">
          <mxGeometry width="30" height="26" as="geometry"/>
        </mxCell>
        <mxCell id="Noxm5cpCZr3M12Uzn7Of-57" value="" style="shape=partialRectangle;top=0;left=0;right=0;bottom=0;align=left;verticalAlign=top;fillColor=none;spacingLeft=34;spacingRight=4;overflow=hidden;rotatable=0;points=[[0,0.5],[1,0.5]];portConstraint=eastwest;dropTarget=0;fontSize=12;" vertex="1" parent="Noxm5cpCZr3M12Uzn7Of-50">
          <mxGeometry y="108" width="220" height="10" as="geometry"/>
        </mxCell>
        <mxCell id="Noxm5cpCZr3M12Uzn7Of-58" value="" style="shape=partialRectangle;top=0;left=0;bottom=0;fillColor=none;align=left;verticalAlign=top;spacingLeft=4;spacingRight=4;overflow=hidden;rotatable=0;points=[];portConstraint=eastwest;part=1;fontSize=12;" vertex="1" connectable="0" parent="Noxm5cpCZr3M12Uzn7Of-57">
          <mxGeometry width="30" height="10" as="geometry"/>
        </mxCell>
      </root>
    </mxGraphModel>
  </diagram>
</mxfile>
